ISO-10303-21;
HEADER;
FILE_DESCRIPTION(('FreeCAD Model'),'2;1');
FILE_NAME('Open CASCADE Shape Model','2025-01-30T23:31:55',(''),(''),
  'Open CASCADE STEP processor 7.8','FreeCAD','Unknown');
FILE_SCHEMA(('AUTOMOTIVE_DESIGN { 1 0 10303 214 1 1 1 1 }'));
ENDSEC;
DATA;
#1 = APPLICATION_PROTOCOL_DEFINITION('international standard',
  'automotive_design',2000,#2);
#2 = APPLICATION_CONTEXT(
  'core data for automotive mechanical design processes');
#3 = SHAPE_DEFINITION_REPRESENTATION(#4,#10);
#4 = PRODUCT_DEFINITION_SHAPE('','',#5);
#5 = PRODUCT_DEFINITION('design','',#6,#9);
#6 = PRODUCT_DEFINITION_FORMATION('','',#7);
#7 = PRODUCT('body','body','',(#8));
#8 = PRODUCT_CONTEXT('',#2,'mechanical');
#9 = PRODUCT_DEFINITION_CONTEXT('part definition',#2,'design');
#10 = ADVANCED_BREP_SHAPE_REPRESENTATION('',(#11,#15),#1666);
#11 = AXIS2_PLACEMENT_3D('',#12,#13,#14);
#12 = CARTESIAN_POINT('',(0.,0.,0.));
#13 = DIRECTION('',(0.,0.,1.));
#14 = DIRECTION('',(1.,0.,-0.));
#15 = MANIFOLD_SOLID_BREP('',#16);
#16 = CLOSED_SHELL('',(#17,#57,#90,#123,#156,#189,#206,#232,#263,#294,
    #311,#459,#477,#508,#526,#544,#577,#595,#626,#644,#662,#688,#705,
    #737,#810,#843,#869,#895,#920,#945,#971,#997,#1014,#1037,#1048,#1060
    ,#1071,#1089,#1107,#1156,#1198,#1229,#1254,#1279,#1303,#1327,#1352,
    #1377,#1394,#1412,#1439,#1472,#1489,#1506,#1531,#1556,#1573,#1590,
    #1607,#1645,#1657));
#17 = ADVANCED_FACE('',(#18),#52,.T.);
#18 = FACE_BOUND('',#19,.T.);
#19 = EDGE_LOOP('',(#20,#30,#38,#46));
#20 = ORIENTED_EDGE('',*,*,#21,.T.);
#21 = EDGE_CURVE('',#22,#24,#26,.T.);
#22 = VERTEX_POINT('',#23);
#23 = CARTESIAN_POINT('',(-1.47,-0.3,-0.1));
#24 = VERTEX_POINT('',#25);
#25 = CARTESIAN_POINT('',(-1.47,-0.3,-12.4));
#26 = LINE('',#27,#28);
#27 = CARTESIAN_POINT('',(-1.47,-0.3,0.));
#28 = VECTOR('',#29,1.);
#29 = DIRECTION('',(0.,0.,-1.));
#30 = ORIENTED_EDGE('',*,*,#31,.T.);
#31 = EDGE_CURVE('',#24,#32,#34,.T.);
#32 = VERTEX_POINT('',#33);
#33 = CARTESIAN_POINT('',(-1.07,-0.3,-12.4));
#34 = LINE('',#35,#36);
#35 = CARTESIAN_POINT('',(-1.47,-0.3,-12.4));
#36 = VECTOR('',#37,1.);
#37 = DIRECTION('',(1.,0.,0.));
#38 = ORIENTED_EDGE('',*,*,#39,.F.);
#39 = EDGE_CURVE('',#40,#32,#42,.T.);
#40 = VERTEX_POINT('',#41);
#41 = CARTESIAN_POINT('',(-1.07,-0.3,-0.1));
#42 = LINE('',#43,#44);
#43 = CARTESIAN_POINT('',(-1.07,-0.3,0.));
#44 = VECTOR('',#45,1.);
#45 = DIRECTION('',(0.,0.,-1.));
#46 = ORIENTED_EDGE('',*,*,#47,.F.);
#47 = EDGE_CURVE('',#22,#40,#48,.T.);
#48 = LINE('',#49,#50);
#49 = CARTESIAN_POINT('',(-1.47,-0.3,-0.1));
#50 = VECTOR('',#51,1.);
#51 = DIRECTION('',(1.,0.,0.));
#52 = PLANE('',#53);
#53 = AXIS2_PLACEMENT_3D('',#54,#55,#56);
#54 = CARTESIAN_POINT('',(-1.57,-0.3,0.));
#55 = DIRECTION('',(0.,-1.,0.));
#56 = DIRECTION('',(1.,0.,0.));
#57 = ADVANCED_FACE('',(#58),#85,.T.);
#58 = FACE_BOUND('',#59,.T.);
#59 = EDGE_LOOP('',(#60,#61,#70,#78));
#60 = ORIENTED_EDGE('',*,*,#21,.F.);
#61 = ORIENTED_EDGE('',*,*,#62,.F.);
#62 = EDGE_CURVE('',#63,#22,#65,.T.);
#63 = VERTEX_POINT('',#64);
#64 = CARTESIAN_POINT('',(-1.57,-0.2,-0.1));
#65 = CIRCLE('',#66,0.1);
#66 = AXIS2_PLACEMENT_3D('',#67,#68,#69);
#67 = CARTESIAN_POINT('',(-1.47,-0.2,-0.1));
#68 = DIRECTION('',(0.,0.,1.));
#69 = DIRECTION('',(-1.,-2.8E-16,0.));
#70 = ORIENTED_EDGE('',*,*,#71,.T.);
#71 = EDGE_CURVE('',#63,#72,#74,.T.);
#72 = VERTEX_POINT('',#73);
#73 = CARTESIAN_POINT('',(-1.57,-0.2,-12.4));
#74 = LINE('',#75,#76);
#75 = CARTESIAN_POINT('',(-1.57,-0.2,0.));
#76 = VECTOR('',#77,1.);
#77 = DIRECTION('',(0.,0.,-1.));
#78 = ORIENTED_EDGE('',*,*,#79,.T.);
#79 = EDGE_CURVE('',#72,#24,#80,.T.);
#80 = CIRCLE('',#81,0.1);
#81 = AXIS2_PLACEMENT_3D('',#82,#83,#84);
#82 = CARTESIAN_POINT('',(-1.47,-0.2,-12.4));
#83 = DIRECTION('',(0.,0.,1.));
#84 = DIRECTION('',(-1.,-2.8E-16,0.));
#85 = CYLINDRICAL_SURFACE('',#86,0.1);
#86 = AXIS2_PLACEMENT_3D('',#87,#88,#89);
#87 = CARTESIAN_POINT('',(-1.47,-0.2,0.));
#88 = DIRECTION('',(0.,0.,-1.));
#89 = DIRECTION('',(0.,-1.,0.));
#90 = ADVANCED_FACE('',(#91),#118,.T.);
#91 = FACE_BOUND('',#92,.T.);
#92 = EDGE_LOOP('',(#93,#102,#110,#117));
#93 = ORIENTED_EDGE('',*,*,#94,.T.);
#94 = EDGE_CURVE('',#24,#95,#97,.T.);
#95 = VERTEX_POINT('',#96);
#96 = CARTESIAN_POINT('',(-1.47,-0.2,-12.5));
#97 = CIRCLE('',#98,0.1);
#98 = AXIS2_PLACEMENT_3D('',#99,#100,#101);
#99 = CARTESIAN_POINT('',(-1.47,-0.2,-12.4));
#100 = DIRECTION('',(1.,0.,0.));
#101 = DIRECTION('',(0.,-1.,0.));
#102 = ORIENTED_EDGE('',*,*,#103,.T.);
#103 = EDGE_CURVE('',#95,#104,#106,.T.);
#104 = VERTEX_POINT('',#105);
#105 = CARTESIAN_POINT('',(-1.07,-0.2,-12.5));
#106 = LINE('',#107,#108);
#107 = CARTESIAN_POINT('',(-1.47,-0.2,-12.5));
#108 = VECTOR('',#109,1.);
#109 = DIRECTION('',(1.,0.,0.));
#110 = ORIENTED_EDGE('',*,*,#111,.F.);
#111 = EDGE_CURVE('',#32,#104,#112,.T.);
#112 = CIRCLE('',#113,0.1);
#113 = AXIS2_PLACEMENT_3D('',#114,#115,#116);
#114 = CARTESIAN_POINT('',(-1.07,-0.2,-12.4));
#115 = DIRECTION('',(1.,0.,0.));
#116 = DIRECTION('',(0.,-1.,0.));
#117 = ORIENTED_EDGE('',*,*,#31,.F.);
#118 = CYLINDRICAL_SURFACE('',#119,0.1);
#119 = AXIS2_PLACEMENT_3D('',#120,#121,#122);
#120 = CARTESIAN_POINT('',(-1.47,-0.2,-12.4));
#121 = DIRECTION('',(1.,0.,0.));
#122 = DIRECTION('',(0.,-1.,0.));
#123 = ADVANCED_FACE('',(#124),#151,.F.);
#124 = FACE_BOUND('',#125,.F.);
#125 = EDGE_LOOP('',(#126,#136,#143,#144));
#126 = ORIENTED_EDGE('',*,*,#127,.T.);
#127 = EDGE_CURVE('',#128,#130,#132,.T.);
#128 = VERTEX_POINT('',#129);
#129 = CARTESIAN_POINT('',(-1.47,-0.4,0.));
#130 = VERTEX_POINT('',#131);
#131 = CARTESIAN_POINT('',(-1.07,-0.4,0.));
#132 = LINE('',#133,#134);
#133 = CARTESIAN_POINT('',(-1.47,-0.4,1.E-17));
#134 = VECTOR('',#135,1.);
#135 = DIRECTION('',(1.,0.,0.));
#136 = ORIENTED_EDGE('',*,*,#137,.T.);
#137 = EDGE_CURVE('',#130,#40,#138,.T.);
#138 = CIRCLE('',#139,0.1);
#139 = AXIS2_PLACEMENT_3D('',#140,#141,#142);
#140 = CARTESIAN_POINT('',(-1.07,-0.4,-0.1));
#141 = DIRECTION('',(-1.,0.,0.));
#142 = DIRECTION('',(0.,0.,1.));
#143 = ORIENTED_EDGE('',*,*,#47,.F.);
#144 = ORIENTED_EDGE('',*,*,#145,.F.);
#145 = EDGE_CURVE('',#128,#22,#146,.T.);
#146 = CIRCLE('',#147,0.1);
#147 = AXIS2_PLACEMENT_3D('',#148,#149,#150);
#148 = CARTESIAN_POINT('',(-1.47,-0.4,-0.1));
#149 = DIRECTION('',(-1.,0.,0.));
#150 = DIRECTION('',(0.,0.,1.));
#151 = CYLINDRICAL_SURFACE('',#152,0.1);
#152 = AXIS2_PLACEMENT_3D('',#153,#154,#155);
#153 = CARTESIAN_POINT('',(-1.47,-0.4,-0.1));
#154 = DIRECTION('',(1.,0.,0.));
#155 = DIRECTION('',(0.,0.,1.));
#156 = ADVANCED_FACE('',(#157),#184,.T.);
#157 = FACE_BOUND('',#158,.T.);
#158 = EDGE_LOOP('',(#159,#168,#176,#183));
#159 = ORIENTED_EDGE('',*,*,#160,.T.);
#160 = EDGE_CURVE('',#32,#161,#163,.T.);
#161 = VERTEX_POINT('',#162);
#162 = CARTESIAN_POINT('',(-0.97,-0.2,-12.4));
#163 = CIRCLE('',#164,0.1);
#164 = AXIS2_PLACEMENT_3D('',#165,#166,#167);
#165 = CARTESIAN_POINT('',(-1.07,-0.2,-12.4));
#166 = DIRECTION('',(-0.,0.,1.));
#167 = DIRECTION('',(0.,-1.,0.));
#168 = ORIENTED_EDGE('',*,*,#169,.F.);
#169 = EDGE_CURVE('',#170,#161,#172,.T.);
#170 = VERTEX_POINT('',#171);
#171 = CARTESIAN_POINT('',(-0.97,-0.2,-0.1));
#172 = LINE('',#173,#174);
#173 = CARTESIAN_POINT('',(-0.97,-0.2,0.));
#174 = VECTOR('',#175,1.);
#175 = DIRECTION('',(0.,0.,-1.));
#176 = ORIENTED_EDGE('',*,*,#177,.F.);
#177 = EDGE_CURVE('',#40,#170,#178,.T.);
#178 = CIRCLE('',#179,0.1);
#179 = AXIS2_PLACEMENT_3D('',#180,#181,#182);
#180 = CARTESIAN_POINT('',(-1.07,-0.2,-0.1));
#181 = DIRECTION('',(-0.,0.,1.));
#182 = DIRECTION('',(0.,-1.,0.));
#183 = ORIENTED_EDGE('',*,*,#39,.T.);
#184 = CYLINDRICAL_SURFACE('',#185,0.1);
#185 = AXIS2_PLACEMENT_3D('',#186,#187,#188);
#186 = CARTESIAN_POINT('',(-1.07,-0.2,0.));
#187 = DIRECTION('',(0.,0.,-1.));
#188 = DIRECTION('',(0.,-1.,0.));
#189 = ADVANCED_FACE('',(#190),#201,.T.);
#190 = FACE_BOUND('',#191,.T.);
#191 = EDGE_LOOP('',(#192,#193,#194));
#192 = ORIENTED_EDGE('',*,*,#94,.F.);
#193 = ORIENTED_EDGE('',*,*,#79,.F.);
#194 = ORIENTED_EDGE('',*,*,#195,.T.);
#195 = EDGE_CURVE('',#72,#95,#196,.T.);
#196 = CIRCLE('',#197,0.1);
#197 = AXIS2_PLACEMENT_3D('',#198,#199,#200);
#198 = CARTESIAN_POINT('',(-1.47,-0.2,-12.4));
#199 = DIRECTION('',(0.,-1.,0.));
#200 = DIRECTION('',(-1.,0.,0.));
#201 = SPHERICAL_SURFACE('',#202,0.1);
#202 = AXIS2_PLACEMENT_3D('',#203,#204,#205);
#203 = CARTESIAN_POINT('',(-1.47,-0.2,-12.4));
#204 = DIRECTION('',(-0.,-0.,-1.));
#205 = DIRECTION('',(-1.,-2.8E-16,0.));
#206 = ADVANCED_FACE('',(#207),#227,.F.);
#207 = FACE_BOUND('',#208,.F.);
#208 = EDGE_LOOP('',(#209,#218,#225,#226));
#209 = ORIENTED_EDGE('',*,*,#210,.F.);
#210 = EDGE_CURVE('',#211,#63,#213,.T.);
#211 = VERTEX_POINT('',#212);
#212 = CARTESIAN_POINT('',(-1.67,-0.2,0.));
#213 = CIRCLE('',#214,0.1);
#214 = AXIS2_PLACEMENT_3D('',#215,#216,#217);
#215 = CARTESIAN_POINT('',(-1.67,-0.2,-0.1));
#216 = DIRECTION('',(0.,1.,0.));
#217 = DIRECTION('',(0.,-0.,1.));
#218 = ORIENTED_EDGE('',*,*,#219,.T.);
#219 = EDGE_CURVE('',#211,#128,#220,.T.);
#220 = CIRCLE('',#221,0.2);
#221 = AXIS2_PLACEMENT_3D('',#222,#223,#224);
#222 = CARTESIAN_POINT('',(-1.47,-0.2,0.));
#223 = DIRECTION('',(0.,0.,1.));
#224 = DIRECTION('',(-1.,-2.8E-16,0.));
#225 = ORIENTED_EDGE('',*,*,#145,.T.);
#226 = ORIENTED_EDGE('',*,*,#62,.F.);
#227 = TOROIDAL_SURFACE('',#228,0.2,0.1);
#228 = AXIS2_PLACEMENT_3D('',#229,#230,#231);
#229 = CARTESIAN_POINT('',(-1.47,-0.2,-0.1));
#230 = DIRECTION('',(0.,0.,1.));
#231 = DIRECTION('',(-1.,-2.8E-16,0.));
#232 = ADVANCED_FACE('',(#233),#258,.T.);
#233 = FACE_BOUND('',#234,.T.);
#234 = EDGE_LOOP('',(#235,#245,#251,#252));
#235 = ORIENTED_EDGE('',*,*,#236,.T.);
#236 = EDGE_CURVE('',#237,#239,#241,.T.);
#237 = VERTEX_POINT('',#238);
#238 = CARTESIAN_POINT('',(-1.57,0.2,-0.1));
#239 = VERTEX_POINT('',#240);
#240 = CARTESIAN_POINT('',(-1.57,0.2,-12.4));
#241 = LINE('',#242,#243);
#242 = CARTESIAN_POINT('',(-1.57,0.2,0.));
#243 = VECTOR('',#244,1.);
#244 = DIRECTION('',(0.,0.,-1.));
#245 = ORIENTED_EDGE('',*,*,#246,.T.);
#246 = EDGE_CURVE('',#239,#72,#247,.T.);
#247 = LINE('',#248,#249);
#248 = CARTESIAN_POINT('',(-1.57,0.2,-12.4));
#249 = VECTOR('',#250,1.);
#250 = DIRECTION('',(0.,-1.,0.));
#251 = ORIENTED_EDGE('',*,*,#71,.F.);
#252 = ORIENTED_EDGE('',*,*,#253,.F.);
#253 = EDGE_CURVE('',#237,#63,#254,.T.);
#254 = LINE('',#255,#256);
#255 = CARTESIAN_POINT('',(-1.57,0.2,-0.1));
#256 = VECTOR('',#257,1.);
#257 = DIRECTION('',(0.,-1.,0.));
#258 = PLANE('',#259);
#259 = AXIS2_PLACEMENT_3D('',#260,#261,#262);
#260 = CARTESIAN_POINT('',(-1.57,0.3,0.));
#261 = DIRECTION('',(-1.,-0.,-0.));
#262 = DIRECTION('',(0.,-1.,0.));
#263 = ADVANCED_FACE('',(#264),#289,.F.);
#264 = FACE_BOUND('',#265,.F.);
#265 = EDGE_LOOP('',(#266,#267,#275,#283));
#266 = ORIENTED_EDGE('',*,*,#103,.T.);
#267 = ORIENTED_EDGE('',*,*,#268,.T.);
#268 = EDGE_CURVE('',#104,#269,#271,.T.);
#269 = VERTEX_POINT('',#270);
#270 = CARTESIAN_POINT('',(-1.07,0.2,-12.5));
#271 = LINE('',#272,#273);
#272 = CARTESIAN_POINT('',(-1.07,-0.2,-12.5));
#273 = VECTOR('',#274,1.);
#274 = DIRECTION('',(0.,1.,0.));
#275 = ORIENTED_EDGE('',*,*,#276,.T.);
#276 = EDGE_CURVE('',#269,#277,#279,.T.);
#277 = VERTEX_POINT('',#278);
#278 = CARTESIAN_POINT('',(-1.47,0.2,-12.5));
#279 = LINE('',#280,#281);
#280 = CARTESIAN_POINT('',(-1.07,0.2,-12.5));
#281 = VECTOR('',#282,1.);
#282 = DIRECTION('',(-1.,0.,0.));
#283 = ORIENTED_EDGE('',*,*,#284,.T.);
#284 = EDGE_CURVE('',#277,#95,#285,.T.);
#285 = LINE('',#286,#287);
#286 = CARTESIAN_POINT('',(-1.47,0.2,-12.5));
#287 = VECTOR('',#288,1.);
#288 = DIRECTION('',(0.,-1.,0.));
#289 = PLANE('',#290);
#290 = AXIS2_PLACEMENT_3D('',#291,#292,#293);
#291 = CARTESIAN_POINT('',(-2.E-17,-1.E-17,-12.5));
#292 = DIRECTION('',(0.,0.,1.));
#293 = DIRECTION('',(1.,0.,-0.));
#294 = ADVANCED_FACE('',(#295),#306,.T.);
#295 = FACE_BOUND('',#296,.T.);
#296 = EDGE_LOOP('',(#297,#304,#305));
#297 = ORIENTED_EDGE('',*,*,#298,.F.);
#298 = EDGE_CURVE('',#161,#104,#299,.T.);
#299 = CIRCLE('',#300,0.1);
#300 = AXIS2_PLACEMENT_3D('',#301,#302,#303);
#301 = CARTESIAN_POINT('',(-1.07,-0.2,-12.4));
#302 = DIRECTION('',(6.E-17,1.,0.));
#303 = DIRECTION('',(1.,-6.E-17,0.));
#304 = ORIENTED_EDGE('',*,*,#160,.F.);
#305 = ORIENTED_EDGE('',*,*,#111,.T.);
#306 = SPHERICAL_SURFACE('',#307,0.1);
#307 = AXIS2_PLACEMENT_3D('',#308,#309,#310);
#308 = CARTESIAN_POINT('',(-1.07,-0.2,-12.4));
#309 = DIRECTION('',(-0.,-0.,-1.));
#310 = DIRECTION('',(0.,-1.,0.));
#311 = ADVANCED_FACE('',(#312,#365,#384),#454,.F.);
#312 = FACE_BOUND('',#313,.F.);
#313 = EDGE_LOOP('',(#314,#315,#316,#324,#333,#341,#350,#358));
#314 = ORIENTED_EDGE('',*,*,#127,.F.);
#315 = ORIENTED_EDGE('',*,*,#219,.F.);
#316 = ORIENTED_EDGE('',*,*,#317,.F.);
#317 = EDGE_CURVE('',#318,#211,#320,.T.);
#318 = VERTEX_POINT('',#319);
#319 = CARTESIAN_POINT('',(-1.67,0.2,0.));
#320 = LINE('',#321,#322);
#321 = CARTESIAN_POINT('',(-1.67,0.2,1.E-17));
#322 = VECTOR('',#323,1.);
#323 = DIRECTION('',(0.,-1.,0.));
#324 = ORIENTED_EDGE('',*,*,#325,.F.);
#325 = EDGE_CURVE('',#326,#318,#328,.T.);
#326 = VERTEX_POINT('',#327);
#327 = CARTESIAN_POINT('',(-1.47,0.4,0.));
#328 = CIRCLE('',#329,0.2);
#329 = AXIS2_PLACEMENT_3D('',#330,#331,#332);
#330 = CARTESIAN_POINT('',(-1.47,0.2,0.));
#331 = DIRECTION('',(0.,-0.,1.));
#332 = DIRECTION('',(0.,1.,0.));
#333 = ORIENTED_EDGE('',*,*,#334,.F.);
#334 = EDGE_CURVE('',#335,#326,#337,.T.);
#335 = VERTEX_POINT('',#336);
#336 = CARTESIAN_POINT('',(-1.07,0.4,0.));
#337 = LINE('',#338,#339);
#338 = CARTESIAN_POINT('',(-1.07,0.4,1.E-17));
#339 = VECTOR('',#340,1.);
#340 = DIRECTION('',(-1.,0.,0.));
#341 = ORIENTED_EDGE('',*,*,#342,.F.);
#342 = EDGE_CURVE('',#343,#335,#345,.T.);
#343 = VERTEX_POINT('',#344);
#344 = CARTESIAN_POINT('',(-0.87,0.2,0.));
#345 = CIRCLE('',#346,0.2);
#346 = AXIS2_PLACEMENT_3D('',#347,#348,#349);
#347 = CARTESIAN_POINT('',(-1.07,0.2,0.));
#348 = DIRECTION('',(0.,0.,1.));
#349 = DIRECTION('',(1.,0.,-0.));
#350 = ORIENTED_EDGE('',*,*,#351,.F.);
#351 = EDGE_CURVE('',#352,#343,#354,.T.);
#352 = VERTEX_POINT('',#353);
#353 = CARTESIAN_POINT('',(-0.87,-0.2,0.));
#354 = LINE('',#355,#356);
#355 = CARTESIAN_POINT('',(-0.87,-0.2,1.E-17));
#356 = VECTOR('',#357,1.);
#357 = DIRECTION('',(0.,1.,0.));
#358 = ORIENTED_EDGE('',*,*,#359,.F.);
#359 = EDGE_CURVE('',#130,#352,#360,.T.);
#360 = CIRCLE('',#361,0.2);
#361 = AXIS2_PLACEMENT_3D('',#362,#363,#364);
#362 = CARTESIAN_POINT('',(-1.07,-0.2,0.));
#363 = DIRECTION('',(-0.,0.,1.));
#364 = DIRECTION('',(0.,-1.,0.));
#365 = FACE_BOUND('',#366,.F.);
#366 = EDGE_LOOP('',(#367,#378));
#367 = ORIENTED_EDGE('',*,*,#368,.T.);
#368 = EDGE_CURVE('',#369,#371,#373,.T.);
#369 = VERTEX_POINT('',#370);
#370 = CARTESIAN_POINT('',(2.5,1.566045976337,0.));
#371 = VERTEX_POINT('',#372);
#372 = CARTESIAN_POINT('',(2.5,-1.566045976337,0.));
#373 = CIRCLE('',#374,2.95);
#374 = AXIS2_PLACEMENT_3D('',#375,#376,#377);
#375 = CARTESIAN_POINT('',(0.,0.,0.));
#376 = DIRECTION('',(0.,0.,1.));
#377 = DIRECTION('',(1.,0.,-0.));
#378 = ORIENTED_EDGE('',*,*,#379,.T.);
#379 = EDGE_CURVE('',#371,#369,#380,.T.);
#380 = LINE('',#381,#382);
#381 = CARTESIAN_POINT('',(2.5,-1.566045976337,0.));
#382 = VECTOR('',#383,1.);
#383 = DIRECTION('',(0.,1.,0.));
#384 = FACE_BOUND('',#385,.F.);
#385 = EDGE_LOOP('',(#386,#396,#405,#413,#422,#430,#439,#447));
#386 = ORIENTED_EDGE('',*,*,#387,.F.);
#387 = EDGE_CURVE('',#388,#390,#392,.T.);
#388 = VERTEX_POINT('',#389);
#389 = CARTESIAN_POINT('',(1.07,-0.4,0.));
#390 = VERTEX_POINT('',#391);
#391 = CARTESIAN_POINT('',(1.47,-0.4,0.));
#392 = LINE('',#393,#394);
#393 = CARTESIAN_POINT('',(1.07,-0.4,1.E-17));
#394 = VECTOR('',#395,1.);
#395 = DIRECTION('',(1.,0.,0.));
#396 = ORIENTED_EDGE('',*,*,#397,.F.);
#397 = EDGE_CURVE('',#398,#388,#400,.T.);
#398 = VERTEX_POINT('',#399);
#399 = CARTESIAN_POINT('',(0.87,-0.2,0.));
#400 = CIRCLE('',#401,0.2);
#401 = AXIS2_PLACEMENT_3D('',#402,#403,#404);
#402 = CARTESIAN_POINT('',(1.07,-0.2,0.));
#403 = DIRECTION('',(0.,0.,1.));
#404 = DIRECTION('',(-1.,-2.8E-16,0.));
#405 = ORIENTED_EDGE('',*,*,#406,.F.);
#406 = EDGE_CURVE('',#407,#398,#409,.T.);
#407 = VERTEX_POINT('',#408);
#408 = CARTESIAN_POINT('',(0.87,0.2,0.));
#409 = LINE('',#410,#411);
#410 = CARTESIAN_POINT('',(0.87,0.2,1.E-17));
#411 = VECTOR('',#412,1.);
#412 = DIRECTION('',(0.,-1.,0.));
#413 = ORIENTED_EDGE('',*,*,#414,.F.);
#414 = EDGE_CURVE('',#415,#407,#417,.T.);
#415 = VERTEX_POINT('',#416);
#416 = CARTESIAN_POINT('',(1.07,0.4,0.));
#417 = CIRCLE('',#418,0.2);
#418 = AXIS2_PLACEMENT_3D('',#419,#420,#421);
#419 = CARTESIAN_POINT('',(1.07,0.2,0.));
#420 = DIRECTION('',(0.,-0.,1.));
#421 = DIRECTION('',(0.,1.,0.));
#422 = ORIENTED_EDGE('',*,*,#423,.F.);
#423 = EDGE_CURVE('',#424,#415,#426,.T.);
#424 = VERTEX_POINT('',#425);
#425 = CARTESIAN_POINT('',(1.47,0.4,0.));
#426 = LINE('',#427,#428);
#427 = CARTESIAN_POINT('',(1.47,0.4,1.E-17));
#428 = VECTOR('',#429,1.);
#429 = DIRECTION('',(-1.,0.,0.));
#430 = ORIENTED_EDGE('',*,*,#431,.F.);
#431 = EDGE_CURVE('',#432,#424,#434,.T.);
#432 = VERTEX_POINT('',#433);
#433 = CARTESIAN_POINT('',(1.67,0.2,0.));
#434 = CIRCLE('',#435,0.2);
#435 = AXIS2_PLACEMENT_3D('',#436,#437,#438);
#436 = CARTESIAN_POINT('',(1.47,0.2,0.));
#437 = DIRECTION('',(0.,0.,1.));
#438 = DIRECTION('',(1.,0.,-0.));
#439 = ORIENTED_EDGE('',*,*,#440,.F.);
#440 = EDGE_CURVE('',#441,#432,#443,.T.);
#441 = VERTEX_POINT('',#442);
#442 = CARTESIAN_POINT('',(1.67,-0.2,0.));
#443 = LINE('',#444,#445);
#444 = CARTESIAN_POINT('',(1.67,-0.2,1.E-17));
#445 = VECTOR('',#446,1.);
#446 = DIRECTION('',(0.,1.,0.));
#447 = ORIENTED_EDGE('',*,*,#448,.F.);
#448 = EDGE_CURVE('',#390,#441,#449,.T.);
#449 = CIRCLE('',#450,0.2);
#450 = AXIS2_PLACEMENT_3D('',#451,#452,#453);
#451 = CARTESIAN_POINT('',(1.47,-0.2,0.));
#452 = DIRECTION('',(-0.,0.,1.));
#453 = DIRECTION('',(0.,-1.,0.));
#454 = PLANE('',#455);
#455 = AXIS2_PLACEMENT_3D('',#456,#457,#458);
#456 = CARTESIAN_POINT('',(0.109132862798,1.6E-16,0.));
#457 = DIRECTION('',(0.,0.,1.));
#458 = DIRECTION('',(1.,0.,-0.));
#459 = ADVANCED_FACE('',(#460),#472,.F.);
#460 = FACE_BOUND('',#461,.F.);
#461 = EDGE_LOOP('',(#462,#463,#464,#471));
#462 = ORIENTED_EDGE('',*,*,#137,.F.);
#463 = ORIENTED_EDGE('',*,*,#359,.T.);
#464 = ORIENTED_EDGE('',*,*,#465,.T.);
#465 = EDGE_CURVE('',#352,#170,#466,.T.);
#466 = CIRCLE('',#467,0.1);
#467 = AXIS2_PLACEMENT_3D('',#468,#469,#470);
#468 = CARTESIAN_POINT('',(-0.87,-0.2,-0.1));
#469 = DIRECTION('',(-6.E-17,-1.,0.));
#470 = DIRECTION('',(1.,-6.E-17,0.));
#471 = ORIENTED_EDGE('',*,*,#177,.F.);
#472 = TOROIDAL_SURFACE('',#473,0.2,0.1);
#473 = AXIS2_PLACEMENT_3D('',#474,#475,#476);
#474 = CARTESIAN_POINT('',(-1.07,-0.2,-0.1));
#475 = DIRECTION('',(0.,0.,1.));
#476 = DIRECTION('',(0.,-1.,0.));
#477 = ADVANCED_FACE('',(#478),#503,.T.);
#478 = FACE_BOUND('',#479,.T.);
#479 = EDGE_LOOP('',(#480,#481,#489,#497));
#480 = ORIENTED_EDGE('',*,*,#169,.T.);
#481 = ORIENTED_EDGE('',*,*,#482,.T.);
#482 = EDGE_CURVE('',#161,#483,#485,.T.);
#483 = VERTEX_POINT('',#484);
#484 = CARTESIAN_POINT('',(-0.97,0.2,-12.4));
#485 = LINE('',#486,#487);
#486 = CARTESIAN_POINT('',(-0.97,-0.2,-12.4));
#487 = VECTOR('',#488,1.);
#488 = DIRECTION('',(0.,1.,0.));
#489 = ORIENTED_EDGE('',*,*,#490,.F.);
#490 = EDGE_CURVE('',#491,#483,#493,.T.);
#491 = VERTEX_POINT('',#492);
#492 = CARTESIAN_POINT('',(-0.97,0.2,-0.1));
#493 = LINE('',#494,#495);
#494 = CARTESIAN_POINT('',(-0.97,0.2,0.));
#495 = VECTOR('',#496,1.);
#496 = DIRECTION('',(0.,0.,-1.));
#497 = ORIENTED_EDGE('',*,*,#498,.F.);
#498 = EDGE_CURVE('',#170,#491,#499,.T.);
#499 = LINE('',#500,#501);
#500 = CARTESIAN_POINT('',(-0.97,-0.2,-0.1));
#501 = VECTOR('',#502,1.);
#502 = DIRECTION('',(0.,1.,0.));
#503 = PLANE('',#504);
#504 = AXIS2_PLACEMENT_3D('',#505,#506,#507);
#505 = CARTESIAN_POINT('',(-0.97,-0.3,0.));
#506 = DIRECTION('',(1.,0.,0.));
#507 = DIRECTION('',(-0.,1.,0.));
#508 = ADVANCED_FACE('',(#509),#521,.T.);
#509 = FACE_BOUND('',#510,.T.);
#510 = EDGE_LOOP('',(#511,#518,#519,#520));
#511 = ORIENTED_EDGE('',*,*,#512,.T.);
#512 = EDGE_CURVE('',#239,#277,#513,.T.);
#513 = CIRCLE('',#514,0.1);
#514 = AXIS2_PLACEMENT_3D('',#515,#516,#517);
#515 = CARTESIAN_POINT('',(-1.47,0.2,-12.4));
#516 = DIRECTION('',(-6.E-17,-1.,-0.));
#517 = DIRECTION('',(-1.,6.E-17,0.));
#518 = ORIENTED_EDGE('',*,*,#284,.T.);
#519 = ORIENTED_EDGE('',*,*,#195,.F.);
#520 = ORIENTED_EDGE('',*,*,#246,.F.);
#521 = CYLINDRICAL_SURFACE('',#522,0.1);
#522 = AXIS2_PLACEMENT_3D('',#523,#524,#525);
#523 = CARTESIAN_POINT('',(-1.47,0.2,-12.4));
#524 = DIRECTION('',(0.,-1.,0.));
#525 = DIRECTION('',(-1.,0.,0.));
#526 = ADVANCED_FACE('',(#527),#539,.F.);
#527 = FACE_BOUND('',#528,.F.);
#528 = EDGE_LOOP('',(#529,#530,#531,#532));
#529 = ORIENTED_EDGE('',*,*,#317,.T.);
#530 = ORIENTED_EDGE('',*,*,#210,.T.);
#531 = ORIENTED_EDGE('',*,*,#253,.F.);
#532 = ORIENTED_EDGE('',*,*,#533,.F.);
#533 = EDGE_CURVE('',#318,#237,#534,.T.);
#534 = CIRCLE('',#535,0.1);
#535 = AXIS2_PLACEMENT_3D('',#536,#537,#538);
#536 = CARTESIAN_POINT('',(-1.67,0.2,-0.1));
#537 = DIRECTION('',(6.E-17,1.,-0.));
#538 = DIRECTION('',(-1.,6.E-17,0.));
#539 = CYLINDRICAL_SURFACE('',#540,0.1);
#540 = AXIS2_PLACEMENT_3D('',#541,#542,#543);
#541 = CARTESIAN_POINT('',(-1.67,0.2,-0.1));
#542 = DIRECTION('',(0.,-1.,0.));
#543 = DIRECTION('',(0.,0.,1.));
#544 = ADVANCED_FACE('',(#545),#572,.T.);
#545 = FACE_BOUND('',#546,.T.);
#546 = EDGE_LOOP('',(#547,#556,#557,#566));
#547 = ORIENTED_EDGE('',*,*,#548,.T.);
#548 = EDGE_CURVE('',#549,#239,#551,.T.);
#549 = VERTEX_POINT('',#550);
#550 = CARTESIAN_POINT('',(-1.47,0.3,-12.4));
#551 = CIRCLE('',#552,0.1);
#552 = AXIS2_PLACEMENT_3D('',#553,#554,#555);
#553 = CARTESIAN_POINT('',(-1.47,0.2,-12.4));
#554 = DIRECTION('',(0.,-0.,1.));
#555 = DIRECTION('',(0.,1.,0.));
#556 = ORIENTED_EDGE('',*,*,#236,.F.);
#557 = ORIENTED_EDGE('',*,*,#558,.F.);
#558 = EDGE_CURVE('',#559,#237,#561,.T.);
#559 = VERTEX_POINT('',#560);
#560 = CARTESIAN_POINT('',(-1.47,0.3,-0.1));
#561 = CIRCLE('',#562,0.1);
#562 = AXIS2_PLACEMENT_3D('',#563,#564,#565);
#563 = CARTESIAN_POINT('',(-1.47,0.2,-0.1));
#564 = DIRECTION('',(0.,-0.,1.));
#565 = DIRECTION('',(0.,1.,0.));
#566 = ORIENTED_EDGE('',*,*,#567,.T.);
#567 = EDGE_CURVE('',#559,#549,#568,.T.);
#568 = LINE('',#569,#570);
#569 = CARTESIAN_POINT('',(-1.47,0.3,0.));
#570 = VECTOR('',#571,1.);
#571 = DIRECTION('',(0.,0.,-1.));
#572 = CYLINDRICAL_SURFACE('',#573,0.1);
#573 = AXIS2_PLACEMENT_3D('',#574,#575,#576);
#574 = CARTESIAN_POINT('',(-1.47,0.2,0.));
#575 = DIRECTION('',(0.,0.,-1.));
#576 = DIRECTION('',(0.,1.,0.));
#577 = ADVANCED_FACE('',(#578),#590,.T.);
#578 = FACE_BOUND('',#579,.T.);
#579 = EDGE_LOOP('',(#580,#581,#582,#589));
#580 = ORIENTED_EDGE('',*,*,#298,.T.);
#581 = ORIENTED_EDGE('',*,*,#268,.T.);
#582 = ORIENTED_EDGE('',*,*,#583,.F.);
#583 = EDGE_CURVE('',#483,#269,#584,.T.);
#584 = CIRCLE('',#585,0.1);
#585 = AXIS2_PLACEMENT_3D('',#586,#587,#588);
#586 = CARTESIAN_POINT('',(-1.07,0.2,-12.4));
#587 = DIRECTION('',(-0.,1.,0.));
#588 = DIRECTION('',(1.,0.,0.));
#589 = ORIENTED_EDGE('',*,*,#482,.F.);
#590 = CYLINDRICAL_SURFACE('',#591,0.1);
#591 = AXIS2_PLACEMENT_3D('',#592,#593,#594);
#592 = CARTESIAN_POINT('',(-1.07,-0.2,-12.4));
#593 = DIRECTION('',(0.,1.,0.));
#594 = DIRECTION('',(1.,0.,0.));
#595 = ADVANCED_FACE('',(#596),#621,.T.);
#596 = FACE_BOUND('',#597,.T.);
#597 = EDGE_LOOP('',(#598,#607,#608,#615));
#598 = ORIENTED_EDGE('',*,*,#599,.T.);
#599 = EDGE_CURVE('',#600,#269,#602,.T.);
#600 = VERTEX_POINT('',#601);
#601 = CARTESIAN_POINT('',(-1.07,0.3,-12.4));
#602 = CIRCLE('',#603,0.1);
#603 = AXIS2_PLACEMENT_3D('',#604,#605,#606);
#604 = CARTESIAN_POINT('',(-1.07,0.2,-12.4));
#605 = DIRECTION('',(-1.,6.E-17,0.));
#606 = DIRECTION('',(6.E-17,1.,0.));
#607 = ORIENTED_EDGE('',*,*,#276,.T.);
#608 = ORIENTED_EDGE('',*,*,#609,.F.);
#609 = EDGE_CURVE('',#549,#277,#610,.T.);
#610 = CIRCLE('',#611,0.1);
#611 = AXIS2_PLACEMENT_3D('',#612,#613,#614);
#612 = CARTESIAN_POINT('',(-1.47,0.2,-12.4));
#613 = DIRECTION('',(-1.,0.,0.));
#614 = DIRECTION('',(0.,1.,0.));
#615 = ORIENTED_EDGE('',*,*,#616,.F.);
#616 = EDGE_CURVE('',#600,#549,#617,.T.);
#617 = LINE('',#618,#619);
#618 = CARTESIAN_POINT('',(-1.07,0.3,-12.4));
#619 = VECTOR('',#620,1.);
#620 = DIRECTION('',(-1.,0.,0.));
#621 = CYLINDRICAL_SURFACE('',#622,0.1);
#622 = AXIS2_PLACEMENT_3D('',#623,#624,#625);
#623 = CARTESIAN_POINT('',(-1.07,0.2,-12.4));
#624 = DIRECTION('',(-1.,0.,0.));
#625 = DIRECTION('',(0.,1.,0.));
#626 = ADVANCED_FACE('',(#627),#639,.F.);
#627 = FACE_BOUND('',#628,.F.);
#628 = EDGE_LOOP('',(#629,#630,#637,#638));
#629 = ORIENTED_EDGE('',*,*,#351,.T.);
#630 = ORIENTED_EDGE('',*,*,#631,.T.);
#631 = EDGE_CURVE('',#343,#491,#632,.T.);
#632 = CIRCLE('',#633,0.1);
#633 = AXIS2_PLACEMENT_3D('',#634,#635,#636);
#634 = CARTESIAN_POINT('',(-0.87,0.2,-0.1));
#635 = DIRECTION('',(0.,-1.,0.));
#636 = DIRECTION('',(0.,0.,1.));
#637 = ORIENTED_EDGE('',*,*,#498,.F.);
#638 = ORIENTED_EDGE('',*,*,#465,.F.);
#639 = CYLINDRICAL_SURFACE('',#640,0.1);
#640 = AXIS2_PLACEMENT_3D('',#641,#642,#643);
#641 = CARTESIAN_POINT('',(-0.87,-0.2,-0.1));
#642 = DIRECTION('',(0.,1.,0.));
#643 = DIRECTION('',(0.,-0.,1.));
#644 = ADVANCED_FACE('',(#645),#657,.F.);
#645 = FACE_BOUND('',#646,.F.);
#646 = EDGE_LOOP('',(#647,#654,#655,#656));
#647 = ORIENTED_EDGE('',*,*,#648,.F.);
#648 = EDGE_CURVE('',#326,#559,#649,.T.);
#649 = CIRCLE('',#650,0.1);
#650 = AXIS2_PLACEMENT_3D('',#651,#652,#653);
#651 = CARTESIAN_POINT('',(-1.47,0.4,-0.1));
#652 = DIRECTION('',(1.,0.,-0.));
#653 = DIRECTION('',(0.,0.,1.));
#654 = ORIENTED_EDGE('',*,*,#325,.T.);
#655 = ORIENTED_EDGE('',*,*,#533,.T.);
#656 = ORIENTED_EDGE('',*,*,#558,.F.);
#657 = TOROIDAL_SURFACE('',#658,0.2,0.1);
#658 = AXIS2_PLACEMENT_3D('',#659,#660,#661);
#659 = CARTESIAN_POINT('',(-1.47,0.2,-0.1));
#660 = DIRECTION('',(0.,0.,1.));
#661 = DIRECTION('',(0.,1.,0.));
#662 = ADVANCED_FACE('',(#663),#683,.F.);
#663 = FACE_BOUND('',#664,.F.);
#664 = EDGE_LOOP('',(#665,#666,#667,#676));
#665 = ORIENTED_EDGE('',*,*,#631,.F.);
#666 = ORIENTED_EDGE('',*,*,#342,.T.);
#667 = ORIENTED_EDGE('',*,*,#668,.T.);
#668 = EDGE_CURVE('',#335,#669,#671,.T.);
#669 = VERTEX_POINT('',#670);
#670 = CARTESIAN_POINT('',(-1.07,0.3,-0.1));
#671 = CIRCLE('',#672,0.1);
#672 = AXIS2_PLACEMENT_3D('',#673,#674,#675);
#673 = CARTESIAN_POINT('',(-1.07,0.4,-0.1));
#674 = DIRECTION('',(1.,-6.E-17,0.));
#675 = DIRECTION('',(6.E-17,1.,0.));
#676 = ORIENTED_EDGE('',*,*,#677,.F.);
#677 = EDGE_CURVE('',#491,#669,#678,.T.);
#678 = CIRCLE('',#679,0.1);
#679 = AXIS2_PLACEMENT_3D('',#680,#681,#682);
#680 = CARTESIAN_POINT('',(-1.07,0.2,-0.1));
#681 = DIRECTION('',(0.,0.,1.));
#682 = DIRECTION('',(1.,0.,-0.));
#683 = TOROIDAL_SURFACE('',#684,0.2,0.1);
#684 = AXIS2_PLACEMENT_3D('',#685,#686,#687);
#685 = CARTESIAN_POINT('',(-1.07,0.2,-0.1));
#686 = DIRECTION('',(0.,0.,1.));
#687 = DIRECTION('',(1.,0.,-0.));
#688 = ADVANCED_FACE('',(#689),#700,.F.);
#689 = FACE_BOUND('',#690,.F.);
#690 = EDGE_LOOP('',(#691,#692,#693,#699));
#691 = ORIENTED_EDGE('',*,*,#334,.T.);
#692 = ORIENTED_EDGE('',*,*,#648,.T.);
#693 = ORIENTED_EDGE('',*,*,#694,.F.);
#694 = EDGE_CURVE('',#669,#559,#695,.T.);
#695 = LINE('',#696,#697);
#696 = CARTESIAN_POINT('',(-1.07,0.3,-0.1));
#697 = VECTOR('',#698,1.);
#698 = DIRECTION('',(-1.,0.,0.));
#699 = ORIENTED_EDGE('',*,*,#668,.F.);
#700 = CYLINDRICAL_SURFACE('',#701,0.1);
#701 = AXIS2_PLACEMENT_3D('',#702,#703,#704);
#702 = CARTESIAN_POINT('',(-1.07,0.4,-0.1));
#703 = DIRECTION('',(-1.,0.,0.));
#704 = DIRECTION('',(0.,0.,1.));
#705 = ADVANCED_FACE('',(#706),#732,.T.);
#706 = FACE_BOUND('',#707,.T.);
#707 = EDGE_LOOP('',(#708,#709,#717,#726));
#708 = ORIENTED_EDGE('',*,*,#368,.T.);
#709 = ORIENTED_EDGE('',*,*,#710,.T.);
#710 = EDGE_CURVE('',#371,#711,#713,.T.);
#711 = VERTEX_POINT('',#712);
#712 = CARTESIAN_POINT('',(2.5,-1.566045976337,0.8));
#713 = LINE('',#714,#715);
#714 = CARTESIAN_POINT('',(2.5,-1.566045976337,0.));
#715 = VECTOR('',#716,1.);
#716 = DIRECTION('',(0.,0.,1.));
#717 = ORIENTED_EDGE('',*,*,#718,.F.);
#718 = EDGE_CURVE('',#719,#711,#721,.T.);
#719 = VERTEX_POINT('',#720);
#720 = CARTESIAN_POINT('',(2.5,1.566045976337,0.8));
#721 = CIRCLE('',#722,2.95);
#722 = AXIS2_PLACEMENT_3D('',#723,#724,#725);
#723 = CARTESIAN_POINT('',(0.,0.,0.8));
#724 = DIRECTION('',(0.,-0.,1.));
#725 = DIRECTION('',(0.847457627119,0.530863042826,0.));
#726 = ORIENTED_EDGE('',*,*,#727,.F.);
#727 = EDGE_CURVE('',#369,#719,#728,.T.);
#728 = LINE('',#729,#730);
#729 = CARTESIAN_POINT('',(2.5,1.566045976337,0.));
#730 = VECTOR('',#731,1.);
#731 = DIRECTION('',(0.,0.,1.));
#732 = CYLINDRICAL_SURFACE('',#733,2.95);
#733 = AXIS2_PLACEMENT_3D('',#734,#735,#736);
#734 = CARTESIAN_POINT('',(0.,0.,0.));
#735 = DIRECTION('',(-0.,-0.,-1.));
#736 = DIRECTION('',(1.,0.,0.));
#737 = ADVANCED_FACE('',(#738),#805,.F.);
#738 = FACE_BOUND('',#739,.F.);
#739 = EDGE_LOOP('',(#740,#750,#761,#772,#780,#791,#792,#793,#794));
#740 = ORIENTED_EDGE('',*,*,#741,.T.);
#741 = EDGE_CURVE('',#742,#744,#746,.T.);
#742 = VERTEX_POINT('',#743);
#743 = CARTESIAN_POINT('',(2.5,-1.36839321834,0.9));
#744 = VERTEX_POINT('',#745);
#745 = CARTESIAN_POINT('',(2.5,-0.502493781056,0.9));
#746 = LINE('',#747,#748);
#747 = CARTESIAN_POINT('',(2.5,-1.566045976337,0.9));
#748 = VECTOR('',#749,1.);
#749 = DIRECTION('',(0.,1.,0.));
#750 = ORIENTED_EDGE('',*,*,#751,.T.);
#751 = EDGE_CURVE('',#744,#752,#754,.T.);
#752 = VERTEX_POINT('',#753);
#753 = CARTESIAN_POINT('',(2.5,2.0393E-11,0.9));
#754 = B_SPLINE_CURVE_WITH_KNOTS('',5,(#755,#756,#757,#758,#759,#760),
  .UNSPECIFIED.,.F.,.F.,(6,6),(14.907835423301,15.393804000981),
  .PIECEWISE_BEZIER_KNOTS.);
#755 = CARTESIAN_POINT('',(2.5,-0.502493781056,0.9));
#756 = CARTESIAN_POINT('',(2.5,-0.399309758973,0.9));
#757 = CARTESIAN_POINT('',(2.5,-0.298182492248,0.9));
#758 = CARTESIAN_POINT('',(2.5,-0.19835439824,0.9));
#759 = CARTESIAN_POINT('',(2.5,-9.917725898724E-02,0.9));
#760 = CARTESIAN_POINT('',(2.5,2.039346E-11,0.9));
#761 = ORIENTED_EDGE('',*,*,#762,.T.);
#762 = EDGE_CURVE('',#752,#763,#765,.T.);
#763 = VERTEX_POINT('',#764);
#764 = CARTESIAN_POINT('',(2.5,0.502493781056,0.9));
#765 = B_SPLINE_CURVE_WITH_KNOTS('',5,(#766,#767,#768,#769,#770,#771),
  .UNSPECIFIED.,.F.,.F.,(6,6),(15.393804000981,15.879772581879),
  .PIECEWISE_BEZIER_KNOTS.);
#766 = CARTESIAN_POINT('',(2.5,2.039413E-11,0.9));
#767 = CARTESIAN_POINT('',(2.5,9.917725968462E-02,0.9));
#768 = CARTESIAN_POINT('',(2.5,0.198354243912,0.9));
#769 = CARTESIAN_POINT('',(2.5,0.298182912827,0.9));
#770 = CARTESIAN_POINT('',(2.5,0.399309194836,0.9));
#771 = CARTESIAN_POINT('',(2.5,0.50249374276,0.9));
#772 = ORIENTED_EDGE('',*,*,#773,.T.);
#773 = EDGE_CURVE('',#763,#774,#776,.T.);
#774 = VERTEX_POINT('',#775);
#775 = CARTESIAN_POINT('',(2.5,1.36839321834,0.9));
#776 = LINE('',#777,#778);
#777 = CARTESIAN_POINT('',(2.5,-1.566045976337,0.9));
#778 = VECTOR('',#779,1.);
#779 = DIRECTION('',(0.,1.,0.));
#780 = ORIENTED_EDGE('',*,*,#781,.T.);
#781 = EDGE_CURVE('',#774,#719,#782,.T.);
#782 = B_SPLINE_CURVE_WITH_KNOTS('',7,(#783,#784,#785,#786,#787,#788,
    #789,#790),.UNSPECIFIED.,.F.,.F.,(8,8),(0.,1.),
  .PIECEWISE_BEZIER_KNOTS.);
#783 = CARTESIAN_POINT('',(2.5,1.36839321834,0.9));
#784 = CARTESIAN_POINT('',(2.5,1.414651323871,0.9));
#785 = CARTESIAN_POINT('',(2.5,1.459594760177,0.894244534854));
#786 = CARTESIAN_POINT('',(2.5,1.499780173071,0.882696494661));
#787 = CARTESIAN_POINT('',(2.5,1.532285253674,0.865928511654));
#788 = CARTESIAN_POINT('',(2.5,1.554801451013,0.845252968646));
#789 = CARTESIAN_POINT('',(2.5,1.566045976337,0.82262043465));
#790 = CARTESIAN_POINT('',(2.5,1.566045976337,0.8));
#791 = ORIENTED_EDGE('',*,*,#727,.F.);
#792 = ORIENTED_EDGE('',*,*,#379,.F.);
#793 = ORIENTED_EDGE('',*,*,#710,.T.);
#794 = ORIENTED_EDGE('',*,*,#795,.F.);
#795 = EDGE_CURVE('',#742,#711,#796,.T.);
#796 = B_SPLINE_CURVE_WITH_KNOTS('',7,(#797,#798,#799,#800,#801,#802,
    #803,#804),.UNSPECIFIED.,.F.,.F.,(8,8),(0.,1.),
  .PIECEWISE_BEZIER_KNOTS.);
#797 = CARTESIAN_POINT('',(2.5,-1.36839321834,0.9));
#798 = CARTESIAN_POINT('',(2.5,-1.414651323871,0.9));
#799 = CARTESIAN_POINT('',(2.5,-1.459594760177,0.894244534854));
#800 = CARTESIAN_POINT('',(2.5,-1.499780173071,0.882696494661));
#801 = CARTESIAN_POINT('',(2.5,-1.532285253674,0.865928511654));
#802 = CARTESIAN_POINT('',(2.5,-1.554801451013,0.845252968646));
#803 = CARTESIAN_POINT('',(2.5,-1.566045976337,0.82262043465));
#804 = CARTESIAN_POINT('',(2.5,-1.566045976337,0.8));
#805 = PLANE('',#806);
#806 = AXIS2_PLACEMENT_3D('',#807,#808,#809);
#807 = CARTESIAN_POINT('',(2.5,-1.566045976337,0.));
#808 = DIRECTION('',(-1.,0.,0.));
#809 = DIRECTION('',(0.,1.,0.));
#810 = ADVANCED_FACE('',(#811),#838,.F.);
#811 = FACE_BOUND('',#812,.F.);
#812 = EDGE_LOOP('',(#813,#814,#823,#831));
#813 = ORIENTED_EDGE('',*,*,#387,.T.);
#814 = ORIENTED_EDGE('',*,*,#815,.T.);
#815 = EDGE_CURVE('',#390,#816,#818,.T.);
#816 = VERTEX_POINT('',#817);
#817 = CARTESIAN_POINT('',(1.47,-0.3,-0.1));
#818 = CIRCLE('',#819,0.1);
#819 = AXIS2_PLACEMENT_3D('',#820,#821,#822);
#820 = CARTESIAN_POINT('',(1.47,-0.4,-0.1));
#821 = DIRECTION('',(-1.,0.,0.));
#822 = DIRECTION('',(0.,0.,1.));
#823 = ORIENTED_EDGE('',*,*,#824,.F.);
#824 = EDGE_CURVE('',#825,#816,#827,.T.);
#825 = VERTEX_POINT('',#826);
#826 = CARTESIAN_POINT('',(1.07,-0.3,-0.1));
#827 = LINE('',#828,#829);
#828 = CARTESIAN_POINT('',(1.07,-0.3,-0.1));
#829 = VECTOR('',#830,1.);
#830 = DIRECTION('',(1.,0.,0.));
#831 = ORIENTED_EDGE('',*,*,#832,.F.);
#832 = EDGE_CURVE('',#388,#825,#833,.T.);
#833 = CIRCLE('',#834,0.1);
#834 = AXIS2_PLACEMENT_3D('',#835,#836,#837);
#835 = CARTESIAN_POINT('',(1.07,-0.4,-0.1));
#836 = DIRECTION('',(-1.,0.,0.));
#837 = DIRECTION('',(0.,0.,1.));
#838 = CYLINDRICAL_SURFACE('',#839,0.1);
#839 = AXIS2_PLACEMENT_3D('',#840,#841,#842);
#840 = CARTESIAN_POINT('',(1.07,-0.4,-0.1));
#841 = DIRECTION('',(1.,0.,0.));
#842 = DIRECTION('',(0.,0.,1.));
#843 = ADVANCED_FACE('',(#844),#864,.F.);
#844 = FACE_BOUND('',#845,.F.);
#845 = EDGE_LOOP('',(#846,#855,#856,#857));
#846 = ORIENTED_EDGE('',*,*,#847,.F.);
#847 = EDGE_CURVE('',#398,#848,#850,.T.);
#848 = VERTEX_POINT('',#849);
#849 = CARTESIAN_POINT('',(0.97,-0.2,-0.1));
#850 = CIRCLE('',#851,0.1);
#851 = AXIS2_PLACEMENT_3D('',#852,#853,#854);
#852 = CARTESIAN_POINT('',(0.87,-0.2,-0.1));
#853 = DIRECTION('',(0.,1.,0.));
#854 = DIRECTION('',(0.,-0.,1.));
#855 = ORIENTED_EDGE('',*,*,#397,.T.);
#856 = ORIENTED_EDGE('',*,*,#832,.T.);
#857 = ORIENTED_EDGE('',*,*,#858,.F.);
#858 = EDGE_CURVE('',#848,#825,#859,.T.);
#859 = CIRCLE('',#860,0.1);
#860 = AXIS2_PLACEMENT_3D('',#861,#862,#863);
#861 = CARTESIAN_POINT('',(1.07,-0.2,-0.1));
#862 = DIRECTION('',(0.,0.,1.));
#863 = DIRECTION('',(-1.,-2.8E-16,0.));
#864 = TOROIDAL_SURFACE('',#865,0.2,0.1);
#865 = AXIS2_PLACEMENT_3D('',#866,#867,#868);
#866 = CARTESIAN_POINT('',(1.07,-0.2,-0.1));
#867 = DIRECTION('',(0.,0.,1.));
#868 = DIRECTION('',(-1.,-2.8E-16,0.));
#869 = ADVANCED_FACE('',(#870),#890,.F.);
#870 = FACE_BOUND('',#871,.F.);
#871 = EDGE_LOOP('',(#872,#873,#874,#883));
#872 = ORIENTED_EDGE('',*,*,#815,.F.);
#873 = ORIENTED_EDGE('',*,*,#448,.T.);
#874 = ORIENTED_EDGE('',*,*,#875,.T.);
#875 = EDGE_CURVE('',#441,#876,#878,.T.);
#876 = VERTEX_POINT('',#877);
#877 = CARTESIAN_POINT('',(1.57,-0.2,-0.1));
#878 = CIRCLE('',#879,0.1);
#879 = AXIS2_PLACEMENT_3D('',#880,#881,#882);
#880 = CARTESIAN_POINT('',(1.67,-0.2,-0.1));
#881 = DIRECTION('',(-6.E-17,-1.,0.));
#882 = DIRECTION('',(1.,-6.E-17,0.));
#883 = ORIENTED_EDGE('',*,*,#884,.F.);
#884 = EDGE_CURVE('',#816,#876,#885,.T.);
#885 = CIRCLE('',#886,0.1);
#886 = AXIS2_PLACEMENT_3D('',#887,#888,#889);
#887 = CARTESIAN_POINT('',(1.47,-0.2,-0.1));
#888 = DIRECTION('',(-0.,0.,1.));
#889 = DIRECTION('',(0.,-1.,0.));
#890 = TOROIDAL_SURFACE('',#891,0.2,0.1);
#891 = AXIS2_PLACEMENT_3D('',#892,#893,#894);
#892 = CARTESIAN_POINT('',(1.47,-0.2,-0.1));
#893 = DIRECTION('',(0.,0.,1.));
#894 = DIRECTION('',(0.,-1.,0.));
#895 = ADVANCED_FACE('',(#896),#915,.F.);
#896 = FACE_BOUND('',#897,.F.);
#897 = EDGE_LOOP('',(#898,#899,#900,#908));
#898 = ORIENTED_EDGE('',*,*,#406,.T.);
#899 = ORIENTED_EDGE('',*,*,#847,.T.);
#900 = ORIENTED_EDGE('',*,*,#901,.F.);
#901 = EDGE_CURVE('',#902,#848,#904,.T.);
#902 = VERTEX_POINT('',#903);
#903 = CARTESIAN_POINT('',(0.97,0.2,-0.1));
#904 = LINE('',#905,#906);
#905 = CARTESIAN_POINT('',(0.97,0.2,-0.1));
#906 = VECTOR('',#907,1.);
#907 = DIRECTION('',(0.,-1.,0.));
#908 = ORIENTED_EDGE('',*,*,#909,.F.);
#909 = EDGE_CURVE('',#407,#902,#910,.T.);
#910 = CIRCLE('',#911,0.1);
#911 = AXIS2_PLACEMENT_3D('',#912,#913,#914);
#912 = CARTESIAN_POINT('',(0.87,0.2,-0.1));
#913 = DIRECTION('',(6.E-17,1.,-0.));
#914 = DIRECTION('',(-1.,6.E-17,0.));
#915 = CYLINDRICAL_SURFACE('',#916,0.1);
#916 = AXIS2_PLACEMENT_3D('',#917,#918,#919);
#917 = CARTESIAN_POINT('',(0.87,0.2,-0.1));
#918 = DIRECTION('',(0.,-1.,0.));
#919 = DIRECTION('',(0.,0.,1.));
#920 = ADVANCED_FACE('',(#921),#940,.F.);
#921 = FACE_BOUND('',#922,.F.);
#922 = EDGE_LOOP('',(#923,#924,#933,#939));
#923 = ORIENTED_EDGE('',*,*,#440,.T.);
#924 = ORIENTED_EDGE('',*,*,#925,.T.);
#925 = EDGE_CURVE('',#432,#926,#928,.T.);
#926 = VERTEX_POINT('',#927);
#927 = CARTESIAN_POINT('',(1.57,0.2,-0.1));
#928 = CIRCLE('',#929,0.1);
#929 = AXIS2_PLACEMENT_3D('',#930,#931,#932);
#930 = CARTESIAN_POINT('',(1.67,0.2,-0.1));
#931 = DIRECTION('',(0.,-1.,0.));
#932 = DIRECTION('',(0.,0.,1.));
#933 = ORIENTED_EDGE('',*,*,#934,.F.);
#934 = EDGE_CURVE('',#876,#926,#935,.T.);
#935 = LINE('',#936,#937);
#936 = CARTESIAN_POINT('',(1.57,-0.2,-0.1));
#937 = VECTOR('',#938,1.);
#938 = DIRECTION('',(0.,1.,0.));
#939 = ORIENTED_EDGE('',*,*,#875,.F.);
#940 = CYLINDRICAL_SURFACE('',#941,0.1);
#941 = AXIS2_PLACEMENT_3D('',#942,#943,#944);
#942 = CARTESIAN_POINT('',(1.67,-0.2,-0.1));
#943 = DIRECTION('',(0.,1.,0.));
#944 = DIRECTION('',(0.,-0.,1.));
#945 = ADVANCED_FACE('',(#946),#966,.F.);
#946 = FACE_BOUND('',#947,.F.);
#947 = EDGE_LOOP('',(#948,#957,#958,#959));
#948 = ORIENTED_EDGE('',*,*,#949,.F.);
#949 = EDGE_CURVE('',#415,#950,#952,.T.);
#950 = VERTEX_POINT('',#951);
#951 = CARTESIAN_POINT('',(1.07,0.3,-0.1));
#952 = CIRCLE('',#953,0.1);
#953 = AXIS2_PLACEMENT_3D('',#954,#955,#956);
#954 = CARTESIAN_POINT('',(1.07,0.4,-0.1));
#955 = DIRECTION('',(1.,0.,-0.));
#956 = DIRECTION('',(0.,0.,1.));
#957 = ORIENTED_EDGE('',*,*,#414,.T.);
#958 = ORIENTED_EDGE('',*,*,#909,.T.);
#959 = ORIENTED_EDGE('',*,*,#960,.F.);
#960 = EDGE_CURVE('',#950,#902,#961,.T.);
#961 = CIRCLE('',#962,0.1);
#962 = AXIS2_PLACEMENT_3D('',#963,#964,#965);
#963 = CARTESIAN_POINT('',(1.07,0.2,-0.1));
#964 = DIRECTION('',(0.,-0.,1.));
#965 = DIRECTION('',(0.,1.,0.));
#966 = TOROIDAL_SURFACE('',#967,0.2,0.1);
#967 = AXIS2_PLACEMENT_3D('',#968,#969,#970);
#968 = CARTESIAN_POINT('',(1.07,0.2,-0.1));
#969 = DIRECTION('',(0.,0.,1.));
#970 = DIRECTION('',(0.,1.,0.));
#971 = ADVANCED_FACE('',(#972),#992,.F.);
#972 = FACE_BOUND('',#973,.F.);
#973 = EDGE_LOOP('',(#974,#975,#976,#985));
#974 = ORIENTED_EDGE('',*,*,#925,.F.);
#975 = ORIENTED_EDGE('',*,*,#431,.T.);
#976 = ORIENTED_EDGE('',*,*,#977,.T.);
#977 = EDGE_CURVE('',#424,#978,#980,.T.);
#978 = VERTEX_POINT('',#979);
#979 = CARTESIAN_POINT('',(1.47,0.3,-0.1));
#980 = CIRCLE('',#981,0.1);
#981 = AXIS2_PLACEMENT_3D('',#982,#983,#984);
#982 = CARTESIAN_POINT('',(1.47,0.4,-0.1));
#983 = DIRECTION('',(1.,-6.E-17,0.));
#984 = DIRECTION('',(6.E-17,1.,0.));
#985 = ORIENTED_EDGE('',*,*,#986,.F.);
#986 = EDGE_CURVE('',#926,#978,#987,.T.);
#987 = CIRCLE('',#988,0.1);
#988 = AXIS2_PLACEMENT_3D('',#989,#990,#991);
#989 = CARTESIAN_POINT('',(1.47,0.2,-0.1));
#990 = DIRECTION('',(0.,0.,1.));
#991 = DIRECTION('',(1.,0.,-0.));
#992 = TOROIDAL_SURFACE('',#993,0.2,0.1);
#993 = AXIS2_PLACEMENT_3D('',#994,#995,#996);
#994 = CARTESIAN_POINT('',(1.47,0.2,-0.1));
#995 = DIRECTION('',(0.,0.,1.));
#996 = DIRECTION('',(1.,0.,-0.));
#997 = ADVANCED_FACE('',(#998),#1009,.F.);
#998 = FACE_BOUND('',#999,.F.);
#999 = EDGE_LOOP('',(#1000,#1001,#1002,#1008));
#1000 = ORIENTED_EDGE('',*,*,#423,.T.);
#1001 = ORIENTED_EDGE('',*,*,#949,.T.);
#1002 = ORIENTED_EDGE('',*,*,#1003,.F.);
#1003 = EDGE_CURVE('',#978,#950,#1004,.T.);
#1004 = LINE('',#1005,#1006);
#1005 = CARTESIAN_POINT('',(1.47,0.3,-0.1));
#1006 = VECTOR('',#1007,1.);
#1007 = DIRECTION('',(-1.,0.,0.));
#1008 = ORIENTED_EDGE('',*,*,#977,.F.);
#1009 = CYLINDRICAL_SURFACE('',#1010,0.1);
#1010 = AXIS2_PLACEMENT_3D('',#1011,#1012,#1013);
#1011 = CARTESIAN_POINT('',(1.47,0.4,-0.1));
#1012 = DIRECTION('',(-1.,0.,0.));
#1013 = DIRECTION('',(0.,0.,1.));
#1014 = ADVANCED_FACE('',(#1015),#1032,.T.);
#1015 = FACE_BOUND('',#1016,.T.);
#1016 = EDGE_LOOP('',(#1017,#1024,#1030,#1031));
#1017 = ORIENTED_EDGE('',*,*,#1018,.T.);
#1018 = EDGE_CURVE('',#483,#600,#1019,.T.);
#1019 = CIRCLE('',#1020,0.1);
#1020 = AXIS2_PLACEMENT_3D('',#1021,#1022,#1023);
#1021 = CARTESIAN_POINT('',(-1.07,0.2,-12.4));
#1022 = DIRECTION('',(0.,0.,1.));
#1023 = DIRECTION('',(1.,0.,-0.));
#1024 = ORIENTED_EDGE('',*,*,#1025,.F.);
#1025 = EDGE_CURVE('',#669,#600,#1026,.T.);
#1026 = LINE('',#1027,#1028);
#1027 = CARTESIAN_POINT('',(-1.07,0.3,0.));
#1028 = VECTOR('',#1029,1.);
#1029 = DIRECTION('',(0.,0.,-1.));
#1030 = ORIENTED_EDGE('',*,*,#677,.F.);
#1031 = ORIENTED_EDGE('',*,*,#490,.T.);
#1032 = CYLINDRICAL_SURFACE('',#1033,0.1);
#1033 = AXIS2_PLACEMENT_3D('',#1034,#1035,#1036);
#1034 = CARTESIAN_POINT('',(-1.07,0.2,0.));
#1035 = DIRECTION('',(0.,0.,-1.));
#1036 = DIRECTION('',(1.,0.,0.));
#1037 = ADVANCED_FACE('',(#1038),#1043,.T.);
#1038 = FACE_BOUND('',#1039,.T.);
#1039 = EDGE_LOOP('',(#1040,#1041,#1042));
#1040 = ORIENTED_EDGE('',*,*,#512,.F.);
#1041 = ORIENTED_EDGE('',*,*,#548,.F.);
#1042 = ORIENTED_EDGE('',*,*,#609,.T.);
#1043 = SPHERICAL_SURFACE('',#1044,0.1);
#1044 = AXIS2_PLACEMENT_3D('',#1045,#1046,#1047);
#1045 = CARTESIAN_POINT('',(-1.47,0.2,-12.4));
#1046 = DIRECTION('',(-0.,-0.,-1.));
#1047 = DIRECTION('',(0.,1.,-0.));
#1048 = ADVANCED_FACE('',(#1049),#1055,.T.);
#1049 = FACE_BOUND('',#1050,.T.);
#1050 = EDGE_LOOP('',(#1051,#1052,#1053,#1054));
#1051 = ORIENTED_EDGE('',*,*,#1025,.T.);
#1052 = ORIENTED_EDGE('',*,*,#616,.T.);
#1053 = ORIENTED_EDGE('',*,*,#567,.F.);
#1054 = ORIENTED_EDGE('',*,*,#694,.F.);
#1055 = PLANE('',#1056);
#1056 = AXIS2_PLACEMENT_3D('',#1057,#1058,#1059);
#1057 = CARTESIAN_POINT('',(-0.97,0.3,0.));
#1058 = DIRECTION('',(0.,1.,0.));
#1059 = DIRECTION('',(-1.,0.,0.));
#1060 = ADVANCED_FACE('',(#1061),#1066,.T.);
#1061 = FACE_BOUND('',#1062,.T.);
#1062 = EDGE_LOOP('',(#1063,#1064,#1065));
#1063 = ORIENTED_EDGE('',*,*,#599,.F.);
#1064 = ORIENTED_EDGE('',*,*,#1018,.F.);
#1065 = ORIENTED_EDGE('',*,*,#583,.T.);
#1066 = SPHERICAL_SURFACE('',#1067,0.1);
#1067 = AXIS2_PLACEMENT_3D('',#1068,#1069,#1070);
#1068 = CARTESIAN_POINT('',(-1.07,0.2,-12.4));
#1069 = DIRECTION('',(-0.,-0.,-1.));
#1070 = DIRECTION('',(1.,0.,0.));
#1071 = ADVANCED_FACE('',(#1072),#1084,.T.);
#1072 = FACE_BOUND('',#1073,.T.);
#1073 = EDGE_LOOP('',(#1074,#1075,#1076,#1083));
#1074 = ORIENTED_EDGE('',*,*,#718,.T.);
#1075 = ORIENTED_EDGE('',*,*,#795,.F.);
#1076 = ORIENTED_EDGE('',*,*,#1077,.F.);
#1077 = EDGE_CURVE('',#774,#742,#1078,.T.);
#1078 = CIRCLE('',#1079,2.85);
#1079 = AXIS2_PLACEMENT_3D('',#1080,#1081,#1082);
#1080 = CARTESIAN_POINT('',(0.,0.,0.9));
#1081 = DIRECTION('',(0.,-0.,1.));
#1082 = DIRECTION('',(0.847457627119,0.530863042826,0.));
#1083 = ORIENTED_EDGE('',*,*,#781,.T.);
#1084 = TOROIDAL_SURFACE('',#1085,2.85,0.1);
#1085 = AXIS2_PLACEMENT_3D('',#1086,#1087,#1088);
#1086 = CARTESIAN_POINT('',(0.,0.,0.8));
#1087 = DIRECTION('',(-0.,-0.,-1.));
#1088 = DIRECTION('',(0.847457627119,0.530863042826,-0.));
#1089 = ADVANCED_FACE('',(#1090),#1102,.T.);
#1090 = FACE_BOUND('',#1091,.T.);
#1091 = EDGE_LOOP('',(#1092,#1093,#1100,#1101));
#1092 = ORIENTED_EDGE('',*,*,#741,.T.);
#1093 = ORIENTED_EDGE('',*,*,#1094,.F.);
#1094 = EDGE_CURVE('',#763,#744,#1095,.T.);
#1095 = CIRCLE('',#1096,2.55);
#1096 = AXIS2_PLACEMENT_3D('',#1097,#1098,#1099);
#1097 = CARTESIAN_POINT('',(0.,0.,0.9));
#1098 = DIRECTION('',(0.,0.,1.));
#1099 = DIRECTION('',(1.,0.,-0.));
#1100 = ORIENTED_EDGE('',*,*,#773,.T.);
#1101 = ORIENTED_EDGE('',*,*,#1077,.T.);
#1102 = PLANE('',#1103);
#1103 = AXIS2_PLACEMENT_3D('',#1104,#1105,#1106);
#1104 = CARTESIAN_POINT('',(0.109132862798,1.6E-16,0.9));
#1105 = DIRECTION('',(0.,0.,1.));
#1106 = DIRECTION('',(1.,0.,-0.));
#1107 = ADVANCED_FACE('',(#1108),#1137,.T.);
#1108 = FACE_BOUND('',#1109,.T.);
#1109 = EDGE_LOOP('',(#1110,#1119,#1120,#1128));
#1110 = ORIENTED_EDGE('',*,*,#1111,.T.);
#1111 = EDGE_CURVE('',#1112,#744,#1114,.T.);
#1112 = VERTEX_POINT('',#1113);
#1113 = CARTESIAN_POINT('',(2.401960784314,-0.482788142583,1.));
#1114 = CIRCLE('',#1115,0.1);
#1115 = AXIS2_PLACEMENT_3D('',#1116,#1117,#1118);
#1116 = CARTESIAN_POINT('',(2.5,-0.502493781056,1.));
#1117 = DIRECTION('',(-0.197056384728,-0.980392156863,0.));
#1118 = DIRECTION('',(0.980392156863,-0.197056384728,0.));
#1119 = ORIENTED_EDGE('',*,*,#751,.T.);
#1120 = ORIENTED_EDGE('',*,*,#1121,.F.);
#1121 = EDGE_CURVE('',#1122,#752,#1124,.T.);
#1122 = VERTEX_POINT('',#1123);
#1123 = CARTESIAN_POINT('',(2.45,-1.E-15,0.986602540378));
#1124 = ( BOUNDED_CURVE() B_SPLINE_CURVE(2,(#1125,#1126,#1127),
.UNSPECIFIED.,.F.,.F.) B_SPLINE_CURVE_WITH_KNOTS((3,3),(0.,0.48596857768
),.PIECEWISE_BEZIER_KNOTS.) CURVE() GEOMETRIC_REPRESENTATION_ITEM() 
RATIONAL_B_SPLINE_CURVE((1.,0.866025403784,1.)) REPRESENTATION_ITEM('') 
  );
#1125 = CARTESIAN_POINT('',(2.45,-6.E-16,0.986602540378));
#1126 = CARTESIAN_POINT('',(2.45,-5.11E-15,0.928867513459));
#1127 = CARTESIAN_POINT('',(2.5,2.039346E-11,0.9));
#1128 = ORIENTED_EDGE('',*,*,#1129,.F.);
#1129 = EDGE_CURVE('',#1112,#1122,#1130,.T.);
#1130 = B_SPLINE_CURVE_WITH_KNOTS('',5,(#1131,#1132,#1133,#1134,#1135,
    #1136),.UNSPECIFIED.,.F.,.F.,(6,6),(14.907835423301,15.393804000981)
  ,.PIECEWISE_BEZIER_KNOTS.);
#1131 = CARTESIAN_POINT('',(2.401960784314,-0.482788142583,1.));
#1132 = CARTESIAN_POINT('',(2.421113426515,-0.387500186177,1.));
#1133 = CARTESIAN_POINT('',(2.435540874028,-0.291262478982,
    0.994953067632));
#1134 = CARTESIAN_POINT('',(2.445180301855,-0.194387428071,
    0.989513835214));
#1135 = CARTESIAN_POINT('',(2.45,-9.719371367531E-02,0.986602540378));
#1136 = CARTESIAN_POINT('',(2.45,-6.E-16,0.986602540378));
#1137 = ( BOUNDED_SURFACE() B_SPLINE_SURFACE(2,5,(
    (#1138,#1139,#1140,#1141,#1142,#1143)
    ,(#1144,#1145,#1146,#1147,#1148,#1149)
    ,(#1150,#1151,#1152,#1153,#1154,#1155
)),.UNSPECIFIED.,.F.,.F.,.F.) B_SPLINE_SURFACE_WITH_KNOTS((3,3),(6,6),(
    0.,0.48596857768),(14.907835423301,15.393804000981),
.PIECEWISE_BEZIER_KNOTS.) GEOMETRIC_REPRESENTATION_ITEM() 
RATIONAL_B_SPLINE_SURFACE((
    (1.,1.,1.,1.,1.,1.)
    ,(0.707106781187,0.778995040832,0.822903452403,0.852014479101
      ,0.866025403787,0.866025403784)
,(1.,1.,1.,1.,1.,1.))) REPRESENTATION_ITEM('') SURFACE() );
#1138 = CARTESIAN_POINT('',(2.401960784314,-0.482788142583,1.));
#1139 = CARTESIAN_POINT('',(2.421113426515,-0.387500186177,1.));
#1140 = CARTESIAN_POINT('',(2.435540874028,-0.291262478982,
    0.994953067632));
#1141 = CARTESIAN_POINT('',(2.445180301855,-0.194387428071,
    0.989513835214));
#1142 = CARTESIAN_POINT('',(2.45,-9.719371367531E-02,0.986602540378));
#1143 = CARTESIAN_POINT('',(2.45,-6.E-16,0.986602540378));
#1144 = CARTESIAN_POINT('',(2.401960784314,-0.482788142583,0.9));
#1145 = CARTESIAN_POINT('',(2.419345956835,-0.396293676498,
    0.918456666828));
#1146 = CARTESIAN_POINT('',(2.434932867181,-0.297580971561,
    0.925878395637));
#1147 = CARTESIAN_POINT('',(2.445051298758,-0.197780483488,
    0.927916798017));
#1148 = CARTESIAN_POINT('',(2.45,-9.719371367502E-02,0.92886751346));
#1149 = CARTESIAN_POINT('',(2.45,-5.11E-15,0.928867513459));
#1150 = CARTESIAN_POINT('',(2.5,-0.502493781056,0.9));
#1151 = CARTESIAN_POINT('',(2.5,-0.399309758973,0.9));
#1152 = CARTESIAN_POINT('',(2.5,-0.298182492248,0.9));
#1153 = CARTESIAN_POINT('',(2.5,-0.19835439824,0.9));
#1154 = CARTESIAN_POINT('',(2.5,-9.917725898724E-02,0.9));
#1155 = CARTESIAN_POINT('',(2.5,2.039346E-11,0.9));
#1156 = ADVANCED_FACE('',(#1157),#1179,.T.);
#1157 = FACE_BOUND('',#1158,.T.);
#1158 = EDGE_LOOP('',(#1159,#1160,#1161,#1170));
#1159 = ORIENTED_EDGE('',*,*,#1121,.T.);
#1160 = ORIENTED_EDGE('',*,*,#762,.T.);
#1161 = ORIENTED_EDGE('',*,*,#1162,.F.);
#1162 = EDGE_CURVE('',#1163,#763,#1165,.T.);
#1163 = VERTEX_POINT('',#1164);
#1164 = CARTESIAN_POINT('',(2.401960784314,0.482788142583,1.));
#1165 = CIRCLE('',#1166,0.1);
#1166 = AXIS2_PLACEMENT_3D('',#1167,#1168,#1169);
#1167 = CARTESIAN_POINT('',(2.5,0.502493781056,1.));
#1168 = DIRECTION('',(0.197056384728,-0.980392156863,0.));
#1169 = DIRECTION('',(0.980392156863,0.197056384728,0.));
#1170 = ORIENTED_EDGE('',*,*,#1171,.F.);
#1171 = EDGE_CURVE('',#1122,#1163,#1172,.T.);
#1172 = B_SPLINE_CURVE_WITH_KNOTS('',5,(#1173,#1174,#1175,#1176,#1177,
    #1178),.UNSPECIFIED.,.F.,.F.,(6,6),(15.393804000981,15.879772581879)
  ,.PIECEWISE_BEZIER_KNOTS.);
#1173 = CARTESIAN_POINT('',(2.45,0.,0.986602540378));
#1174 = CARTESIAN_POINT('',(2.45,9.719371431877E-02,0.986602540379));
#1175 = CARTESIAN_POINT('',(2.445180346876,0.194387264115,0.989513842717
    ));
#1176 = CARTESIAN_POINT('',(2.435540762278,0.291262923544,0.994953055542
    ));
#1177 = CARTESIAN_POINT('',(2.421113546738,0.387499588042,0.999999998466
    ));
#1178 = CARTESIAN_POINT('',(2.401960784318,0.482788142563,1.000000000005
    ));
#1179 = ( BOUNDED_SURFACE() B_SPLINE_SURFACE(2,5,(
    (#1180,#1181,#1182,#1183,#1184,#1185)
    ,(#1186,#1187,#1188,#1189,#1190,#1191)
    ,(#1192,#1193,#1194,#1195,#1196,#1197
)),.UNSPECIFIED.,.F.,.F.,.F.) B_SPLINE_SURFACE_WITH_KNOTS((3,3),(6,6),(
    0.,0.485968580898),(15.393804000981,15.879772581879),
.PIECEWISE_BEZIER_KNOTS.) GEOMETRIC_REPRESENTATION_ITEM() 
RATIONAL_B_SPLINE_SURFACE((
    (1.,1.,1.,1.,1.,1.)
    ,(0.866025403784,0.866025403782,0.852014635743,0.822903072973
      ,0.778995425888,0.707106807867)
,(1.,1.,1.,1.,1.,1.))) REPRESENTATION_ITEM('') SURFACE() );
#1180 = CARTESIAN_POINT('',(2.45,0.,0.986602540378));
#1181 = CARTESIAN_POINT('',(2.45,9.719371431877E-02,0.986602540379));
#1182 = CARTESIAN_POINT('',(2.445180346876,0.194387264115,0.989513842717
    ));
#1183 = CARTESIAN_POINT('',(2.435540762278,0.291262923544,0.994953055542
    ));
#1184 = CARTESIAN_POINT('',(2.421113546738,0.387499588042,0.999999998466
    ));
#1185 = CARTESIAN_POINT('',(2.401960784318,0.482788142563,1.000000000005
    ));
#1186 = CARTESIAN_POINT('',(2.45,-4.94E-15,0.928867513459));
#1187 = CARTESIAN_POINT('',(2.45,9.719371431899E-02,0.928867513459));
#1188 = CARTESIAN_POINT('',(2.445051322309,0.19778043579,0.927916833761)
  );
#1189 = CARTESIAN_POINT('',(2.434932796239,0.297581204317,0.925878308267
    ));
#1190 = CARTESIAN_POINT('',(2.419346058031,0.396293173029,0.918456755868
    ));
#1191 = CARTESIAN_POINT('',(2.401960784314,0.482788142583,0.900000007546
    ));
#1192 = CARTESIAN_POINT('',(2.5,2.039413E-11,0.9));
#1193 = CARTESIAN_POINT('',(2.5,9.917725968462E-02,0.9));
#1194 = CARTESIAN_POINT('',(2.5,0.198354243912,0.9));
#1195 = CARTESIAN_POINT('',(2.5,0.298182912827,0.9));
#1196 = CARTESIAN_POINT('',(2.5,0.399309194836,0.9));
#1197 = CARTESIAN_POINT('',(2.5,0.50249374276,0.9));
#1198 = ADVANCED_FACE('',(#1199),#1224,.T.);
#1199 = FACE_BOUND('',#1200,.T.);
#1200 = EDGE_LOOP('',(#1201,#1209,#1217,#1223));
#1201 = ORIENTED_EDGE('',*,*,#1202,.T.);
#1202 = EDGE_CURVE('',#825,#1203,#1205,.T.);
#1203 = VERTEX_POINT('',#1204);
#1204 = CARTESIAN_POINT('',(1.07,-0.3,-12.4));
#1205 = LINE('',#1206,#1207);
#1206 = CARTESIAN_POINT('',(1.07,-0.3,0.));
#1207 = VECTOR('',#1208,1.);
#1208 = DIRECTION('',(0.,0.,-1.));
#1209 = ORIENTED_EDGE('',*,*,#1210,.T.);
#1210 = EDGE_CURVE('',#1203,#1211,#1213,.T.);
#1211 = VERTEX_POINT('',#1212);
#1212 = CARTESIAN_POINT('',(1.47,-0.3,-12.4));
#1213 = LINE('',#1214,#1215);
#1214 = CARTESIAN_POINT('',(1.07,-0.3,-12.4));
#1215 = VECTOR('',#1216,1.);
#1216 = DIRECTION('',(1.,0.,0.));
#1217 = ORIENTED_EDGE('',*,*,#1218,.F.);
#1218 = EDGE_CURVE('',#816,#1211,#1219,.T.);
#1219 = LINE('',#1220,#1221);
#1220 = CARTESIAN_POINT('',(1.47,-0.3,0.));
#1221 = VECTOR('',#1222,1.);
#1222 = DIRECTION('',(0.,0.,-1.));
#1223 = ORIENTED_EDGE('',*,*,#824,.F.);
#1224 = PLANE('',#1225);
#1225 = AXIS2_PLACEMENT_3D('',#1226,#1227,#1228);
#1226 = CARTESIAN_POINT('',(0.97,-0.3,0.));
#1227 = DIRECTION('',(0.,-1.,0.));
#1228 = DIRECTION('',(1.,0.,0.));
#1229 = ADVANCED_FACE('',(#1230),#1249,.T.);
#1230 = FACE_BOUND('',#1231,.T.);
#1231 = EDGE_LOOP('',(#1232,#1233,#1234,#1242));
#1232 = ORIENTED_EDGE('',*,*,#1202,.F.);
#1233 = ORIENTED_EDGE('',*,*,#858,.F.);
#1234 = ORIENTED_EDGE('',*,*,#1235,.T.);
#1235 = EDGE_CURVE('',#848,#1236,#1238,.T.);
#1236 = VERTEX_POINT('',#1237);
#1237 = CARTESIAN_POINT('',(0.97,-0.2,-12.4));
#1238 = LINE('',#1239,#1240);
#1239 = CARTESIAN_POINT('',(0.97,-0.2,0.));
#1240 = VECTOR('',#1241,1.);
#1241 = DIRECTION('',(0.,0.,-1.));
#1242 = ORIENTED_EDGE('',*,*,#1243,.T.);
#1243 = EDGE_CURVE('',#1236,#1203,#1244,.T.);
#1244 = CIRCLE('',#1245,0.1);
#1245 = AXIS2_PLACEMENT_3D('',#1246,#1247,#1248);
#1246 = CARTESIAN_POINT('',(1.07,-0.2,-12.4));
#1247 = DIRECTION('',(0.,0.,1.));
#1248 = DIRECTION('',(-1.,-2.8E-16,0.));
#1249 = CYLINDRICAL_SURFACE('',#1250,0.1);
#1250 = AXIS2_PLACEMENT_3D('',#1251,#1252,#1253);
#1251 = CARTESIAN_POINT('',(1.07,-0.2,0.));
#1252 = DIRECTION('',(0.,0.,-1.));
#1253 = DIRECTION('',(0.,-1.,0.));
#1254 = ADVANCED_FACE('',(#1255),#1274,.T.);
#1255 = FACE_BOUND('',#1256,.T.);
#1256 = EDGE_LOOP('',(#1257,#1266,#1272,#1273));
#1257 = ORIENTED_EDGE('',*,*,#1258,.T.);
#1258 = EDGE_CURVE('',#1211,#1259,#1261,.T.);
#1259 = VERTEX_POINT('',#1260);
#1260 = CARTESIAN_POINT('',(1.57,-0.2,-12.4));
#1261 = CIRCLE('',#1262,0.1);
#1262 = AXIS2_PLACEMENT_3D('',#1263,#1264,#1265);
#1263 = CARTESIAN_POINT('',(1.47,-0.2,-12.4));
#1264 = DIRECTION('',(-0.,0.,1.));
#1265 = DIRECTION('',(0.,-1.,0.));
#1266 = ORIENTED_EDGE('',*,*,#1267,.F.);
#1267 = EDGE_CURVE('',#876,#1259,#1268,.T.);
#1268 = LINE('',#1269,#1270);
#1269 = CARTESIAN_POINT('',(1.57,-0.2,0.));
#1270 = VECTOR('',#1271,1.);
#1271 = DIRECTION('',(0.,0.,-1.));
#1272 = ORIENTED_EDGE('',*,*,#884,.F.);
#1273 = ORIENTED_EDGE('',*,*,#1218,.T.);
#1274 = CYLINDRICAL_SURFACE('',#1275,0.1);
#1275 = AXIS2_PLACEMENT_3D('',#1276,#1277,#1278);
#1276 = CARTESIAN_POINT('',(1.47,-0.2,0.));
#1277 = DIRECTION('',(0.,0.,-1.));
#1278 = DIRECTION('',(0.,-1.,0.));
#1279 = ADVANCED_FACE('',(#1280),#1298,.T.);
#1280 = FACE_BOUND('',#1281,.T.);
#1281 = EDGE_LOOP('',(#1282,#1290,#1296,#1297));
#1282 = ORIENTED_EDGE('',*,*,#1283,.T.);
#1283 = EDGE_CURVE('',#902,#1284,#1286,.T.);
#1284 = VERTEX_POINT('',#1285);
#1285 = CARTESIAN_POINT('',(0.97,0.2,-12.4));
#1286 = LINE('',#1287,#1288);
#1287 = CARTESIAN_POINT('',(0.97,0.2,0.));
#1288 = VECTOR('',#1289,1.);
#1289 = DIRECTION('',(0.,0.,-1.));
#1290 = ORIENTED_EDGE('',*,*,#1291,.T.);
#1291 = EDGE_CURVE('',#1284,#1236,#1292,.T.);
#1292 = LINE('',#1293,#1294);
#1293 = CARTESIAN_POINT('',(0.97,0.2,-12.4));
#1294 = VECTOR('',#1295,1.);
#1295 = DIRECTION('',(0.,-1.,0.));
#1296 = ORIENTED_EDGE('',*,*,#1235,.F.);
#1297 = ORIENTED_EDGE('',*,*,#901,.F.);
#1298 = PLANE('',#1299);
#1299 = AXIS2_PLACEMENT_3D('',#1300,#1301,#1302);
#1300 = CARTESIAN_POINT('',(0.97,0.3,0.));
#1301 = DIRECTION('',(-1.,-0.,-0.));
#1302 = DIRECTION('',(0.,-1.,0.));
#1303 = ADVANCED_FACE('',(#1304),#1322,.T.);
#1304 = FACE_BOUND('',#1305,.T.);
#1305 = EDGE_LOOP('',(#1306,#1307,#1315,#1321));
#1306 = ORIENTED_EDGE('',*,*,#1267,.T.);
#1307 = ORIENTED_EDGE('',*,*,#1308,.T.);
#1308 = EDGE_CURVE('',#1259,#1309,#1311,.T.);
#1309 = VERTEX_POINT('',#1310);
#1310 = CARTESIAN_POINT('',(1.57,0.2,-12.4));
#1311 = LINE('',#1312,#1313);
#1312 = CARTESIAN_POINT('',(1.57,-0.2,-12.4));
#1313 = VECTOR('',#1314,1.);
#1314 = DIRECTION('',(0.,1.,0.));
#1315 = ORIENTED_EDGE('',*,*,#1316,.F.);
#1316 = EDGE_CURVE('',#926,#1309,#1317,.T.);
#1317 = LINE('',#1318,#1319);
#1318 = CARTESIAN_POINT('',(1.57,0.2,0.));
#1319 = VECTOR('',#1320,1.);
#1320 = DIRECTION('',(0.,0.,-1.));
#1321 = ORIENTED_EDGE('',*,*,#934,.F.);
#1322 = PLANE('',#1323);
#1323 = AXIS2_PLACEMENT_3D('',#1324,#1325,#1326);
#1324 = CARTESIAN_POINT('',(1.57,-0.3,0.));
#1325 = DIRECTION('',(1.,0.,0.));
#1326 = DIRECTION('',(-0.,1.,0.));
#1327 = ADVANCED_FACE('',(#1328),#1347,.T.);
#1328 = FACE_BOUND('',#1329,.T.);
#1329 = EDGE_LOOP('',(#1330,#1339,#1340,#1341));
#1330 = ORIENTED_EDGE('',*,*,#1331,.T.);
#1331 = EDGE_CURVE('',#1332,#1284,#1334,.T.);
#1332 = VERTEX_POINT('',#1333);
#1333 = CARTESIAN_POINT('',(1.07,0.3,-12.4));
#1334 = CIRCLE('',#1335,0.1);
#1335 = AXIS2_PLACEMENT_3D('',#1336,#1337,#1338);
#1336 = CARTESIAN_POINT('',(1.07,0.2,-12.4));
#1337 = DIRECTION('',(0.,-0.,1.));
#1338 = DIRECTION('',(0.,1.,0.));
#1339 = ORIENTED_EDGE('',*,*,#1283,.F.);
#1340 = ORIENTED_EDGE('',*,*,#960,.F.);
#1341 = ORIENTED_EDGE('',*,*,#1342,.T.);
#1342 = EDGE_CURVE('',#950,#1332,#1343,.T.);
#1343 = LINE('',#1344,#1345);
#1344 = CARTESIAN_POINT('',(1.07,0.3,0.));
#1345 = VECTOR('',#1346,1.);
#1346 = DIRECTION('',(0.,0.,-1.));
#1347 = CYLINDRICAL_SURFACE('',#1348,0.1);
#1348 = AXIS2_PLACEMENT_3D('',#1349,#1350,#1351);
#1349 = CARTESIAN_POINT('',(1.07,0.2,0.));
#1350 = DIRECTION('',(0.,0.,-1.));
#1351 = DIRECTION('',(0.,1.,0.));
#1352 = ADVANCED_FACE('',(#1353),#1372,.T.);
#1353 = FACE_BOUND('',#1354,.T.);
#1354 = EDGE_LOOP('',(#1355,#1364,#1370,#1371));
#1355 = ORIENTED_EDGE('',*,*,#1356,.T.);
#1356 = EDGE_CURVE('',#1309,#1357,#1359,.T.);
#1357 = VERTEX_POINT('',#1358);
#1358 = CARTESIAN_POINT('',(1.47,0.3,-12.4));
#1359 = CIRCLE('',#1360,0.1);
#1360 = AXIS2_PLACEMENT_3D('',#1361,#1362,#1363);
#1361 = CARTESIAN_POINT('',(1.47,0.2,-12.4));
#1362 = DIRECTION('',(0.,0.,1.));
#1363 = DIRECTION('',(1.,0.,-0.));
#1364 = ORIENTED_EDGE('',*,*,#1365,.F.);
#1365 = EDGE_CURVE('',#978,#1357,#1366,.T.);
#1366 = LINE('',#1367,#1368);
#1367 = CARTESIAN_POINT('',(1.47,0.3,0.));
#1368 = VECTOR('',#1369,1.);
#1369 = DIRECTION('',(0.,0.,-1.));
#1370 = ORIENTED_EDGE('',*,*,#986,.F.);
#1371 = ORIENTED_EDGE('',*,*,#1316,.T.);
#1372 = CYLINDRICAL_SURFACE('',#1373,0.1);
#1373 = AXIS2_PLACEMENT_3D('',#1374,#1375,#1376);
#1374 = CARTESIAN_POINT('',(1.47,0.2,0.));
#1375 = DIRECTION('',(0.,0.,-1.));
#1376 = DIRECTION('',(1.,0.,0.));
#1377 = ADVANCED_FACE('',(#1378),#1389,.T.);
#1378 = FACE_BOUND('',#1379,.T.);
#1379 = EDGE_LOOP('',(#1380,#1381,#1387,#1388));
#1380 = ORIENTED_EDGE('',*,*,#1365,.T.);
#1381 = ORIENTED_EDGE('',*,*,#1382,.T.);
#1382 = EDGE_CURVE('',#1357,#1332,#1383,.T.);
#1383 = LINE('',#1384,#1385);
#1384 = CARTESIAN_POINT('',(1.47,0.3,-12.4));
#1385 = VECTOR('',#1386,1.);
#1386 = DIRECTION('',(-1.,0.,0.));
#1387 = ORIENTED_EDGE('',*,*,#1342,.F.);
#1388 = ORIENTED_EDGE('',*,*,#1003,.F.);
#1389 = PLANE('',#1390);
#1390 = AXIS2_PLACEMENT_3D('',#1391,#1392,#1393);
#1391 = CARTESIAN_POINT('',(1.57,0.3,0.));
#1392 = DIRECTION('',(0.,1.,0.));
#1393 = DIRECTION('',(-1.,0.,0.));
#1394 = ADVANCED_FACE('',(#1395),#1407,.F.);
#1395 = FACE_BOUND('',#1396,.F.);
#1396 = EDGE_LOOP('',(#1397,#1398,#1405,#1406));
#1397 = ORIENTED_EDGE('',*,*,#1162,.F.);
#1398 = ORIENTED_EDGE('',*,*,#1399,.T.);
#1399 = EDGE_CURVE('',#1163,#1112,#1400,.T.);
#1400 = CIRCLE('',#1401,2.45);
#1401 = AXIS2_PLACEMENT_3D('',#1402,#1403,#1404);
#1402 = CARTESIAN_POINT('',(0.,0.,1.));
#1403 = DIRECTION('',(0.,0.,1.));
#1404 = DIRECTION('',(1.,0.,-0.));
#1405 = ORIENTED_EDGE('',*,*,#1111,.T.);
#1406 = ORIENTED_EDGE('',*,*,#1094,.F.);
#1407 = TOROIDAL_SURFACE('',#1408,2.55,0.1);
#1408 = AXIS2_PLACEMENT_3D('',#1409,#1410,#1411);
#1409 = CARTESIAN_POINT('',(0.,0.,1.));
#1410 = DIRECTION('',(0.,0.,1.));
#1411 = DIRECTION('',(1.,0.,-0.));
#1412 = ADVANCED_FACE('',(#1413),#1434,.T.);
#1413 = FACE_BOUND('',#1414,.T.);
#1414 = EDGE_LOOP('',(#1415,#1416,#1417,#1418,#1426,#1433));
#1415 = ORIENTED_EDGE('',*,*,#1171,.T.);
#1416 = ORIENTED_EDGE('',*,*,#1399,.T.);
#1417 = ORIENTED_EDGE('',*,*,#1129,.T.);
#1418 = ORIENTED_EDGE('',*,*,#1419,.T.);
#1419 = EDGE_CURVE('',#1122,#1420,#1422,.T.);
#1420 = VERTEX_POINT('',#1421);
#1421 = CARTESIAN_POINT('',(2.45,0.,5.5));
#1422 = LINE('',#1423,#1424);
#1423 = CARTESIAN_POINT('',(2.45,0.,0.9));
#1424 = VECTOR('',#1425,1.);
#1425 = DIRECTION('',(0.,0.,1.));
#1426 = ORIENTED_EDGE('',*,*,#1427,.F.);
#1427 = EDGE_CURVE('',#1420,#1420,#1428,.T.);
#1428 = CIRCLE('',#1429,2.45);
#1429 = AXIS2_PLACEMENT_3D('',#1430,#1431,#1432);
#1430 = CARTESIAN_POINT('',(0.,0.,5.5));
#1431 = DIRECTION('',(0.,0.,1.));
#1432 = DIRECTION('',(1.,0.,-0.));
#1433 = ORIENTED_EDGE('',*,*,#1419,.F.);
#1434 = CYLINDRICAL_SURFACE('',#1435,2.45);
#1435 = AXIS2_PLACEMENT_3D('',#1436,#1437,#1438);
#1436 = CARTESIAN_POINT('',(0.,0.,0.9));
#1437 = DIRECTION('',(-0.,-0.,-1.));
#1438 = DIRECTION('',(1.,0.,0.));
#1439 = ADVANCED_FACE('',(#1440),#1467,.T.);
#1440 = FACE_BOUND('',#1441,.T.);
#1441 = EDGE_LOOP('',(#1442,#1451,#1459,#1466));
#1442 = ORIENTED_EDGE('',*,*,#1443,.T.);
#1443 = EDGE_CURVE('',#1203,#1444,#1446,.T.);
#1444 = VERTEX_POINT('',#1445);
#1445 = CARTESIAN_POINT('',(1.07,-0.2,-12.5));
#1446 = CIRCLE('',#1447,0.1);
#1447 = AXIS2_PLACEMENT_3D('',#1448,#1449,#1450);
#1448 = CARTESIAN_POINT('',(1.07,-0.2,-12.4));
#1449 = DIRECTION('',(1.,0.,0.));
#1450 = DIRECTION('',(0.,-1.,0.));
#1451 = ORIENTED_EDGE('',*,*,#1452,.T.);
#1452 = EDGE_CURVE('',#1444,#1453,#1455,.T.);
#1453 = VERTEX_POINT('',#1454);
#1454 = CARTESIAN_POINT('',(1.47,-0.2,-12.5));
#1455 = LINE('',#1456,#1457);
#1456 = CARTESIAN_POINT('',(1.07,-0.2,-12.5));
#1457 = VECTOR('',#1458,1.);
#1458 = DIRECTION('',(1.,0.,0.));
#1459 = ORIENTED_EDGE('',*,*,#1460,.F.);
#1460 = EDGE_CURVE('',#1211,#1453,#1461,.T.);
#1461 = CIRCLE('',#1462,0.1);
#1462 = AXIS2_PLACEMENT_3D('',#1463,#1464,#1465);
#1463 = CARTESIAN_POINT('',(1.47,-0.2,-12.4));
#1464 = DIRECTION('',(1.,0.,0.));
#1465 = DIRECTION('',(0.,-1.,0.));
#1466 = ORIENTED_EDGE('',*,*,#1210,.F.);
#1467 = CYLINDRICAL_SURFACE('',#1468,0.1);
#1468 = AXIS2_PLACEMENT_3D('',#1469,#1470,#1471);
#1469 = CARTESIAN_POINT('',(1.07,-0.2,-12.4));
#1470 = DIRECTION('',(1.,0.,0.));
#1471 = DIRECTION('',(0.,-1.,0.));
#1472 = ADVANCED_FACE('',(#1473),#1484,.T.);
#1473 = FACE_BOUND('',#1474,.T.);
#1474 = EDGE_LOOP('',(#1475,#1476,#1477));
#1475 = ORIENTED_EDGE('',*,*,#1443,.F.);
#1476 = ORIENTED_EDGE('',*,*,#1243,.F.);
#1477 = ORIENTED_EDGE('',*,*,#1478,.T.);
#1478 = EDGE_CURVE('',#1236,#1444,#1479,.T.);
#1479 = CIRCLE('',#1480,0.1);
#1480 = AXIS2_PLACEMENT_3D('',#1481,#1482,#1483);
#1481 = CARTESIAN_POINT('',(1.07,-0.2,-12.4));
#1482 = DIRECTION('',(0.,-1.,0.));
#1483 = DIRECTION('',(-1.,0.,0.));
#1484 = SPHERICAL_SURFACE('',#1485,0.1);
#1485 = AXIS2_PLACEMENT_3D('',#1486,#1487,#1488);
#1486 = CARTESIAN_POINT('',(1.07,-0.2,-12.4));
#1487 = DIRECTION('',(-0.,-0.,-1.));
#1488 = DIRECTION('',(-1.,-2.8E-16,0.));
#1489 = ADVANCED_FACE('',(#1490),#1501,.T.);
#1490 = FACE_BOUND('',#1491,.T.);
#1491 = EDGE_LOOP('',(#1492,#1499,#1500));
#1492 = ORIENTED_EDGE('',*,*,#1493,.F.);
#1493 = EDGE_CURVE('',#1259,#1453,#1494,.T.);
#1494 = CIRCLE('',#1495,0.1);
#1495 = AXIS2_PLACEMENT_3D('',#1496,#1497,#1498);
#1496 = CARTESIAN_POINT('',(1.47,-0.2,-12.4));
#1497 = DIRECTION('',(6.E-17,1.,0.));
#1498 = DIRECTION('',(1.,-6.E-17,0.));
#1499 = ORIENTED_EDGE('',*,*,#1258,.F.);
#1500 = ORIENTED_EDGE('',*,*,#1460,.T.);
#1501 = SPHERICAL_SURFACE('',#1502,0.1);
#1502 = AXIS2_PLACEMENT_3D('',#1503,#1504,#1505);
#1503 = CARTESIAN_POINT('',(1.47,-0.2,-12.4));
#1504 = DIRECTION('',(-0.,-0.,-1.));
#1505 = DIRECTION('',(0.,-1.,0.));
#1506 = ADVANCED_FACE('',(#1507),#1526,.T.);
#1507 = FACE_BOUND('',#1508,.T.);
#1508 = EDGE_LOOP('',(#1509,#1518,#1524,#1525));
#1509 = ORIENTED_EDGE('',*,*,#1510,.T.);
#1510 = EDGE_CURVE('',#1284,#1511,#1513,.T.);
#1511 = VERTEX_POINT('',#1512);
#1512 = CARTESIAN_POINT('',(1.07,0.2,-12.5));
#1513 = CIRCLE('',#1514,0.1);
#1514 = AXIS2_PLACEMENT_3D('',#1515,#1516,#1517);
#1515 = CARTESIAN_POINT('',(1.07,0.2,-12.4));
#1516 = DIRECTION('',(-6.E-17,-1.,-0.));
#1517 = DIRECTION('',(-1.,6.E-17,0.));
#1518 = ORIENTED_EDGE('',*,*,#1519,.T.);
#1519 = EDGE_CURVE('',#1511,#1444,#1520,.T.);
#1520 = LINE('',#1521,#1522);
#1521 = CARTESIAN_POINT('',(1.07,0.2,-12.5));
#1522 = VECTOR('',#1523,1.);
#1523 = DIRECTION('',(0.,-1.,0.));
#1524 = ORIENTED_EDGE('',*,*,#1478,.F.);
#1525 = ORIENTED_EDGE('',*,*,#1291,.F.);
#1526 = CYLINDRICAL_SURFACE('',#1527,0.1);
#1527 = AXIS2_PLACEMENT_3D('',#1528,#1529,#1530);
#1528 = CARTESIAN_POINT('',(1.07,0.2,-12.4));
#1529 = DIRECTION('',(0.,-1.,0.));
#1530 = DIRECTION('',(-1.,0.,0.));
#1531 = ADVANCED_FACE('',(#1532),#1551,.T.);
#1532 = FACE_BOUND('',#1533,.T.);
#1533 = EDGE_LOOP('',(#1534,#1535,#1543,#1550));
#1534 = ORIENTED_EDGE('',*,*,#1493,.T.);
#1535 = ORIENTED_EDGE('',*,*,#1536,.T.);
#1536 = EDGE_CURVE('',#1453,#1537,#1539,.T.);
#1537 = VERTEX_POINT('',#1538);
#1538 = CARTESIAN_POINT('',(1.47,0.2,-12.5));
#1539 = LINE('',#1540,#1541);
#1540 = CARTESIAN_POINT('',(1.47,-0.2,-12.5));
#1541 = VECTOR('',#1542,1.);
#1542 = DIRECTION('',(0.,1.,0.));
#1543 = ORIENTED_EDGE('',*,*,#1544,.F.);
#1544 = EDGE_CURVE('',#1309,#1537,#1545,.T.);
#1545 = CIRCLE('',#1546,0.1);
#1546 = AXIS2_PLACEMENT_3D('',#1547,#1548,#1549);
#1547 = CARTESIAN_POINT('',(1.47,0.2,-12.4));
#1548 = DIRECTION('',(-0.,1.,0.));
#1549 = DIRECTION('',(1.,0.,0.));
#1550 = ORIENTED_EDGE('',*,*,#1308,.F.);
#1551 = CYLINDRICAL_SURFACE('',#1552,0.1);
#1552 = AXIS2_PLACEMENT_3D('',#1553,#1554,#1555);
#1553 = CARTESIAN_POINT('',(1.47,-0.2,-12.4));
#1554 = DIRECTION('',(0.,1.,0.));
#1555 = DIRECTION('',(1.,0.,0.));
#1556 = ADVANCED_FACE('',(#1557),#1568,.T.);
#1557 = FACE_BOUND('',#1558,.T.);
#1558 = EDGE_LOOP('',(#1559,#1560,#1561));
#1559 = ORIENTED_EDGE('',*,*,#1510,.F.);
#1560 = ORIENTED_EDGE('',*,*,#1331,.F.);
#1561 = ORIENTED_EDGE('',*,*,#1562,.T.);
#1562 = EDGE_CURVE('',#1332,#1511,#1563,.T.);
#1563 = CIRCLE('',#1564,0.1);
#1564 = AXIS2_PLACEMENT_3D('',#1565,#1566,#1567);
#1565 = CARTESIAN_POINT('',(1.07,0.2,-12.4));
#1566 = DIRECTION('',(-1.,0.,0.));
#1567 = DIRECTION('',(0.,1.,0.));
#1568 = SPHERICAL_SURFACE('',#1569,0.1);
#1569 = AXIS2_PLACEMENT_3D('',#1570,#1571,#1572);
#1570 = CARTESIAN_POINT('',(1.07,0.2,-12.4));
#1571 = DIRECTION('',(-0.,-0.,-1.));
#1572 = DIRECTION('',(0.,1.,-0.));
#1573 = ADVANCED_FACE('',(#1574),#1585,.T.);
#1574 = FACE_BOUND('',#1575,.T.);
#1575 = EDGE_LOOP('',(#1576,#1583,#1584));
#1576 = ORIENTED_EDGE('',*,*,#1577,.F.);
#1577 = EDGE_CURVE('',#1357,#1537,#1578,.T.);
#1578 = CIRCLE('',#1579,0.1);
#1579 = AXIS2_PLACEMENT_3D('',#1580,#1581,#1582);
#1580 = CARTESIAN_POINT('',(1.47,0.2,-12.4));
#1581 = DIRECTION('',(-1.,6.E-17,0.));
#1582 = DIRECTION('',(6.E-17,1.,0.));
#1583 = ORIENTED_EDGE('',*,*,#1356,.F.);
#1584 = ORIENTED_EDGE('',*,*,#1544,.T.);
#1585 = SPHERICAL_SURFACE('',#1586,0.1);
#1586 = AXIS2_PLACEMENT_3D('',#1587,#1588,#1589);
#1587 = CARTESIAN_POINT('',(1.47,0.2,-12.4));
#1588 = DIRECTION('',(-0.,-0.,-1.));
#1589 = DIRECTION('',(1.,0.,0.));
#1590 = ADVANCED_FACE('',(#1591),#1602,.T.);
#1591 = FACE_BOUND('',#1592,.T.);
#1592 = EDGE_LOOP('',(#1593,#1594,#1600,#1601));
#1593 = ORIENTED_EDGE('',*,*,#1577,.T.);
#1594 = ORIENTED_EDGE('',*,*,#1595,.T.);
#1595 = EDGE_CURVE('',#1537,#1511,#1596,.T.);
#1596 = LINE('',#1597,#1598);
#1597 = CARTESIAN_POINT('',(1.47,0.2,-12.5));
#1598 = VECTOR('',#1599,1.);
#1599 = DIRECTION('',(-1.,0.,0.));
#1600 = ORIENTED_EDGE('',*,*,#1562,.F.);
#1601 = ORIENTED_EDGE('',*,*,#1382,.F.);
#1602 = CYLINDRICAL_SURFACE('',#1603,0.1);
#1603 = AXIS2_PLACEMENT_3D('',#1604,#1605,#1606);
#1604 = CARTESIAN_POINT('',(1.47,0.2,-12.4));
#1605 = DIRECTION('',(-1.,0.,0.));
#1606 = DIRECTION('',(0.,1.,0.));
#1607 = ADVANCED_FACE('',(#1608),#1628,.T.);
#1608 = FACE_BOUND('',#1609,.T.);
#1609 = EDGE_LOOP('',(#1610,#1619,#1620,#1621));
#1610 = ORIENTED_EDGE('',*,*,#1611,.F.);
#1611 = EDGE_CURVE('',#1420,#1612,#1614,.T.);
#1612 = VERTEX_POINT('',#1613);
#1613 = CARTESIAN_POINT('',(5.E-02,0.,7.9));
#1614 = CIRCLE('',#1615,2.4);
#1615 = AXIS2_PLACEMENT_3D('',#1616,#1617,#1618);
#1616 = CARTESIAN_POINT('',(5.E-02,0.,5.5));
#1617 = DIRECTION('',(0.,-1.,0.));
#1618 = DIRECTION('',(1.,0.,0.));
#1619 = ORIENTED_EDGE('',*,*,#1427,.T.);
#1620 = ORIENTED_EDGE('',*,*,#1611,.T.);
#1621 = ORIENTED_EDGE('',*,*,#1622,.F.);
#1622 = EDGE_CURVE('',#1612,#1612,#1623,.T.);
#1623 = CIRCLE('',#1624,5.E-02);
#1624 = AXIS2_PLACEMENT_3D('',#1625,#1626,#1627);
#1625 = CARTESIAN_POINT('',(0.,0.,7.9));
#1626 = DIRECTION('',(0.,0.,1.));
#1627 = DIRECTION('',(1.,0.,-0.));
#1628 = SURFACE_OF_REVOLUTION('',#1629,#1642);
#1629 = B_SPLINE_CURVE_WITH_KNOTS('',6,(#1630,#1631,#1632,#1633,#1634,
    #1635,#1636,#1637,#1638,#1639,#1640,#1641),.UNSPECIFIED.,.F.,.F.,(7,
    5,7),(0.,0.785398163397,1.570796326795),.UNSPECIFIED.);
#1630 = CARTESIAN_POINT('',(2.45,0.,5.5));
#1631 = CARTESIAN_POINT('',(2.45,0.,5.814159265359));
#1632 = CARTESIAN_POINT('',(2.400652171565,0.,6.128318005986));
#1633 = CARTESIAN_POINT('',(2.301955229096,0.,6.432790397749));
#1634 = CARTESIAN_POINT('',(2.156450013498,0.,6.71787416795));
#1635 = CARTESIAN_POINT('',(1.969200421756,0.,6.97491212794));
#1636 = CARTESIAN_POINT('',(1.52491212794,0.,7.419200421756));
#1637 = CARTESIAN_POINT('',(1.26787416795,0.,7.606450013498));
#1638 = CARTESIAN_POINT('',(0.982790397749,0.,7.751955229096));
#1639 = CARTESIAN_POINT('',(0.678318005986,0.,7.850652171565));
#1640 = CARTESIAN_POINT('',(0.364159265359,0.,7.9));
#1641 = CARTESIAN_POINT('',(5.E-02,0.,7.9));
#1642 = AXIS1_PLACEMENT('',#1643,#1644);
#1643 = CARTESIAN_POINT('',(0.,0.,5.5));
#1644 = DIRECTION('',(0.,0.,1.));
#1645 = ADVANCED_FACE('',(#1646),#1652,.F.);
#1646 = FACE_BOUND('',#1647,.F.);
#1647 = EDGE_LOOP('',(#1648,#1649,#1650,#1651));
#1648 = ORIENTED_EDGE('',*,*,#1452,.T.);
#1649 = ORIENTED_EDGE('',*,*,#1536,.T.);
#1650 = ORIENTED_EDGE('',*,*,#1595,.T.);
#1651 = ORIENTED_EDGE('',*,*,#1519,.T.);
#1652 = PLANE('',#1653);
#1653 = AXIS2_PLACEMENT_3D('',#1654,#1655,#1656);
#1654 = CARTESIAN_POINT('',(-2.E-17,-1.E-17,-12.5));
#1655 = DIRECTION('',(0.,0.,1.));
#1656 = DIRECTION('',(1.,0.,-0.));
#1657 = ADVANCED_FACE('',(#1658),#1661,.T.);
#1658 = FACE_BOUND('',#1659,.T.);
#1659 = EDGE_LOOP('',(#1660));
#1660 = ORIENTED_EDGE('',*,*,#1622,.T.);
#1661 = PLANE('',#1662);
#1662 = AXIS2_PLACEMENT_3D('',#1663,#1664,#1665);
#1663 = CARTESIAN_POINT('',(-1.4E-16,1.8E-16,7.9));
#1664 = DIRECTION('',(0.,0.,1.));
#1665 = DIRECTION('',(1.,0.,-0.));
#1666 = ( GEOMETRIC_REPRESENTATION_CONTEXT(3) 
GLOBAL_UNCERTAINTY_ASSIGNED_CONTEXT((#1670)) 
GLOBAL_UNIT_ASSIGNED_CONTEXT((#1667,#1668,#1669)) REPRESENTATION_CONTEXT
('Context #1','3D Context with UNIT and UNCERTAINTY') );
#1667 = ( LENGTH_UNIT() NAMED_UNIT(*) SI_UNIT(.MILLI.,.METRE.) );
#1668 = ( NAMED_UNIT(*) PLANE_ANGLE_UNIT() SI_UNIT($,.RADIAN.) );
#1669 = ( NAMED_UNIT(*) SI_UNIT($,.STERADIAN.) SOLID_ANGLE_UNIT() );
#1670 = UNCERTAINTY_MEASURE_WITH_UNIT(LENGTH_MEASURE(1.E-07),#1667,
  'distance_accuracy_value','confusion accuracy');
#1671 = PRODUCT_RELATED_PRODUCT_CATEGORY('part',$,(#7));
#1672 = MECHANICAL_DESIGN_GEOMETRIC_PRESENTATION_REPRESENTATION('',(
    #1673,#1684,#1693,#1702,#1711,#1719,#1728,#1737,#1744,#1753,#1762,
    #1771,#1778,#1785,#1794,#1803,#1810,#1819,#1828,#1837,#1844,#1851,
    #1858,#1865,#1872,#1879,#1886,#1893,#1900,#1907,#1914,#1921,#1928,
    #1935,#1944,#1953,#1962,#1971,#1978,#1985,#1992,#1999,#2008,#2017,
    #2026,#2035,#2044,#2053,#2062,#2071,#2078,#2085,#2094,#2103,#2112,
    #2121,#2130,#2139,#2148,#2157,#2164,#2173),#1666);
#1673 = STYLED_ITEM('color',(#1674),#15);
#1674 = PRESENTATION_STYLE_ASSIGNMENT((#1675,#1681));
#1675 = SURFACE_STYLE_USAGE(.BOTH.,#1676);
#1676 = SURFACE_SIDE_STYLE('',(#1677));
#1677 = SURFACE_STYLE_FILL_AREA(#1678);
#1678 = FILL_AREA_STYLE('',(#1679));
#1679 = FILL_AREA_STYLE_COLOUR('',#1680);
#1680 = COLOUR_RGB('',0.701960807317,0.701960807317,0.701960807317);
#1681 = CURVE_STYLE('',#1682,POSITIVE_LENGTH_MEASURE(0.1),#1683);
#1682 = DRAUGHTING_PRE_DEFINED_CURVE_FONT('continuous');
#1683 = COLOUR_RGB('',9.803921802644E-02,9.803921802644E-02,
  9.803921802644E-02);
#1684 = OVER_RIDING_STYLED_ITEM('overriding color',(#1685),#17,#1673);
#1685 = PRESENTATION_STYLE_ASSIGNMENT((#1686));
#1686 = SURFACE_STYLE_USAGE(.BOTH.,#1687);
#1687 = SURFACE_SIDE_STYLE('',(#1688,#1691));
#1688 = SURFACE_STYLE_FILL_AREA(#1689);
#1689 = FILL_AREA_STYLE('',(#1690));
#1690 = FILL_AREA_STYLE_COLOUR('',#1680);
#1691 = SURFACE_STYLE_RENDERING_WITH_PROPERTIES(.NORMAL_SHADING.,#1680,(
    #1692));
#1692 = SURFACE_STYLE_TRANSPARENT(1.);
#1693 = OVER_RIDING_STYLED_ITEM('overriding color',(#1694),#57,#1673);
#1694 = PRESENTATION_STYLE_ASSIGNMENT((#1695));
#1695 = SURFACE_STYLE_USAGE(.BOTH.,#1696);
#1696 = SURFACE_SIDE_STYLE('',(#1697,#1700));
#1697 = SURFACE_STYLE_FILL_AREA(#1698);
#1698 = FILL_AREA_STYLE('',(#1699));
#1699 = FILL_AREA_STYLE_COLOUR('',#1680);
#1700 = SURFACE_STYLE_RENDERING_WITH_PROPERTIES(.NORMAL_SHADING.,#1680,(
    #1701));
#1701 = SURFACE_STYLE_TRANSPARENT(1.);
#1702 = OVER_RIDING_STYLED_ITEM('overriding color',(#1703),#90,#1673);
#1703 = PRESENTATION_STYLE_ASSIGNMENT((#1704));
#1704 = SURFACE_STYLE_USAGE(.BOTH.,#1705);
#1705 = SURFACE_SIDE_STYLE('',(#1706,#1709));
#1706 = SURFACE_STYLE_FILL_AREA(#1707);
#1707 = FILL_AREA_STYLE('',(#1708));
#1708 = FILL_AREA_STYLE_COLOUR('',#1680);
#1709 = SURFACE_STYLE_RENDERING_WITH_PROPERTIES(.NORMAL_SHADING.,#1680,(
    #1710));
#1710 = SURFACE_STYLE_TRANSPARENT(1.);
#1711 = OVER_RIDING_STYLED_ITEM('overriding color',(#1712),#123,#1673);
#1712 = PRESENTATION_STYLE_ASSIGNMENT((#1713));
#1713 = SURFACE_STYLE_USAGE(.BOTH.,#1714);
#1714 = SURFACE_SIDE_STYLE('',(#1715));
#1715 = SURFACE_STYLE_FILL_AREA(#1716);
#1716 = FILL_AREA_STYLE('',(#1717));
#1717 = FILL_AREA_STYLE_COLOUR('',#1718);
#1718 = COLOUR_RGB('',3.921568724327E-02,0.35686275969,1.);
#1719 = OVER_RIDING_STYLED_ITEM('overriding color',(#1720),#156,#1673);
#1720 = PRESENTATION_STYLE_ASSIGNMENT((#1721));
#1721 = SURFACE_STYLE_USAGE(.BOTH.,#1722);
#1722 = SURFACE_SIDE_STYLE('',(#1723,#1726));
#1723 = SURFACE_STYLE_FILL_AREA(#1724);
#1724 = FILL_AREA_STYLE('',(#1725));
#1725 = FILL_AREA_STYLE_COLOUR('',#1680);
#1726 = SURFACE_STYLE_RENDERING_WITH_PROPERTIES(.NORMAL_SHADING.,#1680,(
    #1727));
#1727 = SURFACE_STYLE_TRANSPARENT(1.);
#1728 = OVER_RIDING_STYLED_ITEM('overriding color',(#1729),#189,#1673);
#1729 = PRESENTATION_STYLE_ASSIGNMENT((#1730));
#1730 = SURFACE_STYLE_USAGE(.BOTH.,#1731);
#1731 = SURFACE_SIDE_STYLE('',(#1732,#1735));
#1732 = SURFACE_STYLE_FILL_AREA(#1733);
#1733 = FILL_AREA_STYLE('',(#1734));
#1734 = FILL_AREA_STYLE_COLOUR('',#1680);
#1735 = SURFACE_STYLE_RENDERING_WITH_PROPERTIES(.NORMAL_SHADING.,#1680,(
    #1736));
#1736 = SURFACE_STYLE_TRANSPARENT(1.);
#1737 = OVER_RIDING_STYLED_ITEM('overriding color',(#1738),#206,#1673);
#1738 = PRESENTATION_STYLE_ASSIGNMENT((#1739));
#1739 = SURFACE_STYLE_USAGE(.BOTH.,#1740);
#1740 = SURFACE_SIDE_STYLE('',(#1741));
#1741 = SURFACE_STYLE_FILL_AREA(#1742);
#1742 = FILL_AREA_STYLE('',(#1743));
#1743 = FILL_AREA_STYLE_COLOUR('',#1718);
#1744 = OVER_RIDING_STYLED_ITEM('overriding color',(#1745),#232,#1673);
#1745 = PRESENTATION_STYLE_ASSIGNMENT((#1746));
#1746 = SURFACE_STYLE_USAGE(.BOTH.,#1747);
#1747 = SURFACE_SIDE_STYLE('',(#1748,#1751));
#1748 = SURFACE_STYLE_FILL_AREA(#1749);
#1749 = FILL_AREA_STYLE('',(#1750));
#1750 = FILL_AREA_STYLE_COLOUR('',#1680);
#1751 = SURFACE_STYLE_RENDERING_WITH_PROPERTIES(.NORMAL_SHADING.,#1680,(
    #1752));
#1752 = SURFACE_STYLE_TRANSPARENT(1.);
#1753 = OVER_RIDING_STYLED_ITEM('overriding color',(#1754),#263,#1673);
#1754 = PRESENTATION_STYLE_ASSIGNMENT((#1755));
#1755 = SURFACE_STYLE_USAGE(.BOTH.,#1756);
#1756 = SURFACE_SIDE_STYLE('',(#1757,#1760));
#1757 = SURFACE_STYLE_FILL_AREA(#1758);
#1758 = FILL_AREA_STYLE('',(#1759));
#1759 = FILL_AREA_STYLE_COLOUR('',#1680);
#1760 = SURFACE_STYLE_RENDERING_WITH_PROPERTIES(.NORMAL_SHADING.,#1680,(
    #1761));
#1761 = SURFACE_STYLE_TRANSPARENT(1.);
#1762 = OVER_RIDING_STYLED_ITEM('overriding color',(#1763),#294,#1673);
#1763 = PRESENTATION_STYLE_ASSIGNMENT((#1764));
#1764 = SURFACE_STYLE_USAGE(.BOTH.,#1765);
#1765 = SURFACE_SIDE_STYLE('',(#1766,#1769));
#1766 = SURFACE_STYLE_FILL_AREA(#1767);
#1767 = FILL_AREA_STYLE('',(#1768));
#1768 = FILL_AREA_STYLE_COLOUR('',#1680);
#1769 = SURFACE_STYLE_RENDERING_WITH_PROPERTIES(.NORMAL_SHADING.,#1680,(
    #1770));
#1770 = SURFACE_STYLE_TRANSPARENT(1.);
#1771 = OVER_RIDING_STYLED_ITEM('overriding color',(#1772),#311,#1673);
#1772 = PRESENTATION_STYLE_ASSIGNMENT((#1773));
#1773 = SURFACE_STYLE_USAGE(.BOTH.,#1774);
#1774 = SURFACE_SIDE_STYLE('',(#1775));
#1775 = SURFACE_STYLE_FILL_AREA(#1776);
#1776 = FILL_AREA_STYLE('',(#1777));
#1777 = FILL_AREA_STYLE_COLOUR('',#1718);
#1778 = OVER_RIDING_STYLED_ITEM('overriding color',(#1779),#459,#1673);
#1779 = PRESENTATION_STYLE_ASSIGNMENT((#1780));
#1780 = SURFACE_STYLE_USAGE(.BOTH.,#1781);
#1781 = SURFACE_SIDE_STYLE('',(#1782));
#1782 = SURFACE_STYLE_FILL_AREA(#1783);
#1783 = FILL_AREA_STYLE('',(#1784));
#1784 = FILL_AREA_STYLE_COLOUR('',#1718);
#1785 = OVER_RIDING_STYLED_ITEM('overriding color',(#1786),#477,#1673);
#1786 = PRESENTATION_STYLE_ASSIGNMENT((#1787));
#1787 = SURFACE_STYLE_USAGE(.BOTH.,#1788);
#1788 = SURFACE_SIDE_STYLE('',(#1789,#1792));
#1789 = SURFACE_STYLE_FILL_AREA(#1790);
#1790 = FILL_AREA_STYLE('',(#1791));
#1791 = FILL_AREA_STYLE_COLOUR('',#1680);
#1792 = SURFACE_STYLE_RENDERING_WITH_PROPERTIES(.NORMAL_SHADING.,#1680,(
    #1793));
#1793 = SURFACE_STYLE_TRANSPARENT(1.);
#1794 = OVER_RIDING_STYLED_ITEM('overriding color',(#1795),#508,#1673);
#1795 = PRESENTATION_STYLE_ASSIGNMENT((#1796));
#1796 = SURFACE_STYLE_USAGE(.BOTH.,#1797);
#1797 = SURFACE_SIDE_STYLE('',(#1798,#1801));
#1798 = SURFACE_STYLE_FILL_AREA(#1799);
#1799 = FILL_AREA_STYLE('',(#1800));
#1800 = FILL_AREA_STYLE_COLOUR('',#1680);
#1801 = SURFACE_STYLE_RENDERING_WITH_PROPERTIES(.NORMAL_SHADING.,#1680,(
    #1802));
#1802 = SURFACE_STYLE_TRANSPARENT(1.);
#1803 = OVER_RIDING_STYLED_ITEM('overriding color',(#1804),#526,#1673);
#1804 = PRESENTATION_STYLE_ASSIGNMENT((#1805));
#1805 = SURFACE_STYLE_USAGE(.BOTH.,#1806);
#1806 = SURFACE_SIDE_STYLE('',(#1807));
#1807 = SURFACE_STYLE_FILL_AREA(#1808);
#1808 = FILL_AREA_STYLE('',(#1809));
#1809 = FILL_AREA_STYLE_COLOUR('',#1718);
#1810 = OVER_RIDING_STYLED_ITEM('overriding color',(#1811),#544,#1673);
#1811 = PRESENTATION_STYLE_ASSIGNMENT((#1812));
#1812 = SURFACE_STYLE_USAGE(.BOTH.,#1813);
#1813 = SURFACE_SIDE_STYLE('',(#1814,#1817));
#1814 = SURFACE_STYLE_FILL_AREA(#1815);
#1815 = FILL_AREA_STYLE('',(#1816));
#1816 = FILL_AREA_STYLE_COLOUR('',#1680);
#1817 = SURFACE_STYLE_RENDERING_WITH_PROPERTIES(.NORMAL_SHADING.,#1680,(
    #1818));
#1818 = SURFACE_STYLE_TRANSPARENT(1.);
#1819 = OVER_RIDING_STYLED_ITEM('overriding color',(#1820),#577,#1673);
#1820 = PRESENTATION_STYLE_ASSIGNMENT((#1821));
#1821 = SURFACE_STYLE_USAGE(.BOTH.,#1822);
#1822 = SURFACE_SIDE_STYLE('',(#1823,#1826));
#1823 = SURFACE_STYLE_FILL_AREA(#1824);
#1824 = FILL_AREA_STYLE('',(#1825));
#1825 = FILL_AREA_STYLE_COLOUR('',#1680);
#1826 = SURFACE_STYLE_RENDERING_WITH_PROPERTIES(.NORMAL_SHADING.,#1680,(
    #1827));
#1827 = SURFACE_STYLE_TRANSPARENT(1.);
#1828 = OVER_RIDING_STYLED_ITEM('overriding color',(#1829),#595,#1673);
#1829 = PRESENTATION_STYLE_ASSIGNMENT((#1830));
#1830 = SURFACE_STYLE_USAGE(.BOTH.,#1831);
#1831 = SURFACE_SIDE_STYLE('',(#1832,#1835));
#1832 = SURFACE_STYLE_FILL_AREA(#1833);
#1833 = FILL_AREA_STYLE('',(#1834));
#1834 = FILL_AREA_STYLE_COLOUR('',#1680);
#1835 = SURFACE_STYLE_RENDERING_WITH_PROPERTIES(.NORMAL_SHADING.,#1680,(
    #1836));
#1836 = SURFACE_STYLE_TRANSPARENT(1.);
#1837 = OVER_RIDING_STYLED_ITEM('overriding color',(#1838),#626,#1673);
#1838 = PRESENTATION_STYLE_ASSIGNMENT((#1839));
#1839 = SURFACE_STYLE_USAGE(.BOTH.,#1840);
#1840 = SURFACE_SIDE_STYLE('',(#1841));
#1841 = SURFACE_STYLE_FILL_AREA(#1842);
#1842 = FILL_AREA_STYLE('',(#1843));
#1843 = FILL_AREA_STYLE_COLOUR('',#1718);
#1844 = OVER_RIDING_STYLED_ITEM('overriding color',(#1845),#644,#1673);
#1845 = PRESENTATION_STYLE_ASSIGNMENT((#1846));
#1846 = SURFACE_STYLE_USAGE(.BOTH.,#1847);
#1847 = SURFACE_SIDE_STYLE('',(#1848));
#1848 = SURFACE_STYLE_FILL_AREA(#1849);
#1849 = FILL_AREA_STYLE('',(#1850));
#1850 = FILL_AREA_STYLE_COLOUR('',#1718);
#1851 = OVER_RIDING_STYLED_ITEM('overriding color',(#1852),#662,#1673);
#1852 = PRESENTATION_STYLE_ASSIGNMENT((#1853));
#1853 = SURFACE_STYLE_USAGE(.BOTH.,#1854);
#1854 = SURFACE_SIDE_STYLE('',(#1855));
#1855 = SURFACE_STYLE_FILL_AREA(#1856);
#1856 = FILL_AREA_STYLE('',(#1857));
#1857 = FILL_AREA_STYLE_COLOUR('',#1718);
#1858 = OVER_RIDING_STYLED_ITEM('overriding color',(#1859),#688,#1673);
#1859 = PRESENTATION_STYLE_ASSIGNMENT((#1860));
#1860 = SURFACE_STYLE_USAGE(.BOTH.,#1861);
#1861 = SURFACE_SIDE_STYLE('',(#1862));
#1862 = SURFACE_STYLE_FILL_AREA(#1863);
#1863 = FILL_AREA_STYLE('',(#1864));
#1864 = FILL_AREA_STYLE_COLOUR('',#1718);
#1865 = OVER_RIDING_STYLED_ITEM('overriding color',(#1866),#705,#1673);
#1866 = PRESENTATION_STYLE_ASSIGNMENT((#1867));
#1867 = SURFACE_STYLE_USAGE(.BOTH.,#1868);
#1868 = SURFACE_SIDE_STYLE('',(#1869));
#1869 = SURFACE_STYLE_FILL_AREA(#1870);
#1870 = FILL_AREA_STYLE('',(#1871));
#1871 = FILL_AREA_STYLE_COLOUR('',#1718);
#1872 = OVER_RIDING_STYLED_ITEM('overriding color',(#1873),#737,#1673);
#1873 = PRESENTATION_STYLE_ASSIGNMENT((#1874));
#1874 = SURFACE_STYLE_USAGE(.BOTH.,#1875);
#1875 = SURFACE_SIDE_STYLE('',(#1876));
#1876 = SURFACE_STYLE_FILL_AREA(#1877);
#1877 = FILL_AREA_STYLE('',(#1878));
#1878 = FILL_AREA_STYLE_COLOUR('',#1718);
#1879 = OVER_RIDING_STYLED_ITEM('overriding color',(#1880),#810,#1673);
#1880 = PRESENTATION_STYLE_ASSIGNMENT((#1881));
#1881 = SURFACE_STYLE_USAGE(.BOTH.,#1882);
#1882 = SURFACE_SIDE_STYLE('',(#1883));
#1883 = SURFACE_STYLE_FILL_AREA(#1884);
#1884 = FILL_AREA_STYLE('',(#1885));
#1885 = FILL_AREA_STYLE_COLOUR('',#1718);
#1886 = OVER_RIDING_STYLED_ITEM('overriding color',(#1887),#843,#1673);
#1887 = PRESENTATION_STYLE_ASSIGNMENT((#1888));
#1888 = SURFACE_STYLE_USAGE(.BOTH.,#1889);
#1889 = SURFACE_SIDE_STYLE('',(#1890));
#1890 = SURFACE_STYLE_FILL_AREA(#1891);
#1891 = FILL_AREA_STYLE('',(#1892));
#1892 = FILL_AREA_STYLE_COLOUR('',#1718);
#1893 = OVER_RIDING_STYLED_ITEM('overriding color',(#1894),#869,#1673);
#1894 = PRESENTATION_STYLE_ASSIGNMENT((#1895));
#1895 = SURFACE_STYLE_USAGE(.BOTH.,#1896);
#1896 = SURFACE_SIDE_STYLE('',(#1897));
#1897 = SURFACE_STYLE_FILL_AREA(#1898);
#1898 = FILL_AREA_STYLE('',(#1899));
#1899 = FILL_AREA_STYLE_COLOUR('',#1718);
#1900 = OVER_RIDING_STYLED_ITEM('overriding color',(#1901),#895,#1673);
#1901 = PRESENTATION_STYLE_ASSIGNMENT((#1902));
#1902 = SURFACE_STYLE_USAGE(.BOTH.,#1903);
#1903 = SURFACE_SIDE_STYLE('',(#1904));
#1904 = SURFACE_STYLE_FILL_AREA(#1905);
#1905 = FILL_AREA_STYLE('',(#1906));
#1906 = FILL_AREA_STYLE_COLOUR('',#1718);
#1907 = OVER_RIDING_STYLED_ITEM('overriding color',(#1908),#920,#1673);
#1908 = PRESENTATION_STYLE_ASSIGNMENT((#1909));
#1909 = SURFACE_STYLE_USAGE(.BOTH.,#1910);
#1910 = SURFACE_SIDE_STYLE('',(#1911));
#1911 = SURFACE_STYLE_FILL_AREA(#1912);
#1912 = FILL_AREA_STYLE('',(#1913));
#1913 = FILL_AREA_STYLE_COLOUR('',#1718);
#1914 = OVER_RIDING_STYLED_ITEM('overriding color',(#1915),#945,#1673);
#1915 = PRESENTATION_STYLE_ASSIGNMENT((#1916));
#1916 = SURFACE_STYLE_USAGE(.BOTH.,#1917);
#1917 = SURFACE_SIDE_STYLE('',(#1918));
#1918 = SURFACE_STYLE_FILL_AREA(#1919);
#1919 = FILL_AREA_STYLE('',(#1920));
#1920 = FILL_AREA_STYLE_COLOUR('',#1718);
#1921 = OVER_RIDING_STYLED_ITEM('overriding color',(#1922),#971,#1673);
#1922 = PRESENTATION_STYLE_ASSIGNMENT((#1923));
#1923 = SURFACE_STYLE_USAGE(.BOTH.,#1924);
#1924 = SURFACE_SIDE_STYLE('',(#1925));
#1925 = SURFACE_STYLE_FILL_AREA(#1926);
#1926 = FILL_AREA_STYLE('',(#1927));
#1927 = FILL_AREA_STYLE_COLOUR('',#1718);
#1928 = OVER_RIDING_STYLED_ITEM('overriding color',(#1929),#997,#1673);
#1929 = PRESENTATION_STYLE_ASSIGNMENT((#1930));
#1930 = SURFACE_STYLE_USAGE(.BOTH.,#1931);
#1931 = SURFACE_SIDE_STYLE('',(#1932));
#1932 = SURFACE_STYLE_FILL_AREA(#1933);
#1933 = FILL_AREA_STYLE('',(#1934));
#1934 = FILL_AREA_STYLE_COLOUR('',#1718);
#1935 = OVER_RIDING_STYLED_ITEM('overriding color',(#1936),#1014,#1673);
#1936 = PRESENTATION_STYLE_ASSIGNMENT((#1937));
#1937 = SURFACE_STYLE_USAGE(.BOTH.,#1938);
#1938 = SURFACE_SIDE_STYLE('',(#1939,#1942));
#1939 = SURFACE_STYLE_FILL_AREA(#1940);
#1940 = FILL_AREA_STYLE('',(#1941));
#1941 = FILL_AREA_STYLE_COLOUR('',#1680);
#1942 = SURFACE_STYLE_RENDERING_WITH_PROPERTIES(.NORMAL_SHADING.,#1680,(
    #1943));
#1943 = SURFACE_STYLE_TRANSPARENT(1.);
#1944 = OVER_RIDING_STYLED_ITEM('overriding color',(#1945),#1037,#1673);
#1945 = PRESENTATION_STYLE_ASSIGNMENT((#1946));
#1946 = SURFACE_STYLE_USAGE(.BOTH.,#1947);
#1947 = SURFACE_SIDE_STYLE('',(#1948,#1951));
#1948 = SURFACE_STYLE_FILL_AREA(#1949);
#1949 = FILL_AREA_STYLE('',(#1950));
#1950 = FILL_AREA_STYLE_COLOUR('',#1680);
#1951 = SURFACE_STYLE_RENDERING_WITH_PROPERTIES(.NORMAL_SHADING.,#1680,(
    #1952));
#1952 = SURFACE_STYLE_TRANSPARENT(1.);
#1953 = OVER_RIDING_STYLED_ITEM('overriding color',(#1954),#1048,#1673);
#1954 = PRESENTATION_STYLE_ASSIGNMENT((#1955));
#1955 = SURFACE_STYLE_USAGE(.BOTH.,#1956);
#1956 = SURFACE_SIDE_STYLE('',(#1957,#1960));
#1957 = SURFACE_STYLE_FILL_AREA(#1958);
#1958 = FILL_AREA_STYLE('',(#1959));
#1959 = FILL_AREA_STYLE_COLOUR('',#1680);
#1960 = SURFACE_STYLE_RENDERING_WITH_PROPERTIES(.NORMAL_SHADING.,#1680,(
    #1961));
#1961 = SURFACE_STYLE_TRANSPARENT(1.);
#1962 = OVER_RIDING_STYLED_ITEM('overriding color',(#1963),#1060,#1673);
#1963 = PRESENTATION_STYLE_ASSIGNMENT((#1964));
#1964 = SURFACE_STYLE_USAGE(.BOTH.,#1965);
#1965 = SURFACE_SIDE_STYLE('',(#1966,#1969));
#1966 = SURFACE_STYLE_FILL_AREA(#1967);
#1967 = FILL_AREA_STYLE('',(#1968));
#1968 = FILL_AREA_STYLE_COLOUR('',#1680);
#1969 = SURFACE_STYLE_RENDERING_WITH_PROPERTIES(.NORMAL_SHADING.,#1680,(
    #1970));
#1970 = SURFACE_STYLE_TRANSPARENT(1.);
#1971 = OVER_RIDING_STYLED_ITEM('overriding color',(#1972),#1071,#1673);
#1972 = PRESENTATION_STYLE_ASSIGNMENT((#1973));
#1973 = SURFACE_STYLE_USAGE(.BOTH.,#1974);
#1974 = SURFACE_SIDE_STYLE('',(#1975));
#1975 = SURFACE_STYLE_FILL_AREA(#1976);
#1976 = FILL_AREA_STYLE('',(#1977));
#1977 = FILL_AREA_STYLE_COLOUR('',#1718);
#1978 = OVER_RIDING_STYLED_ITEM('overriding color',(#1979),#1089,#1673);
#1979 = PRESENTATION_STYLE_ASSIGNMENT((#1980));
#1980 = SURFACE_STYLE_USAGE(.BOTH.,#1981);
#1981 = SURFACE_SIDE_STYLE('',(#1982));
#1982 = SURFACE_STYLE_FILL_AREA(#1983);
#1983 = FILL_AREA_STYLE('',(#1984));
#1984 = FILL_AREA_STYLE_COLOUR('',#1718);
#1985 = OVER_RIDING_STYLED_ITEM('overriding color',(#1986),#1107,#1673);
#1986 = PRESENTATION_STYLE_ASSIGNMENT((#1987));
#1987 = SURFACE_STYLE_USAGE(.BOTH.,#1988);
#1988 = SURFACE_SIDE_STYLE('',(#1989));
#1989 = SURFACE_STYLE_FILL_AREA(#1990);
#1990 = FILL_AREA_STYLE('',(#1991));
#1991 = FILL_AREA_STYLE_COLOUR('',#1718);
#1992 = OVER_RIDING_STYLED_ITEM('overriding color',(#1993),#1156,#1673);
#1993 = PRESENTATION_STYLE_ASSIGNMENT((#1994));
#1994 = SURFACE_STYLE_USAGE(.BOTH.,#1995);
#1995 = SURFACE_SIDE_STYLE('',(#1996));
#1996 = SURFACE_STYLE_FILL_AREA(#1997);
#1997 = FILL_AREA_STYLE('',(#1998));
#1998 = FILL_AREA_STYLE_COLOUR('',#1718);
#1999 = OVER_RIDING_STYLED_ITEM('overriding color',(#2000),#1198,#1673);
#2000 = PRESENTATION_STYLE_ASSIGNMENT((#2001));
#2001 = SURFACE_STYLE_USAGE(.BOTH.,#2002);
#2002 = SURFACE_SIDE_STYLE('',(#2003,#2006));
#2003 = SURFACE_STYLE_FILL_AREA(#2004);
#2004 = FILL_AREA_STYLE('',(#2005));
#2005 = FILL_AREA_STYLE_COLOUR('',#1680);
#2006 = SURFACE_STYLE_RENDERING_WITH_PROPERTIES(.NORMAL_SHADING.,#1680,(
    #2007));
#2007 = SURFACE_STYLE_TRANSPARENT(1.);
#2008 = OVER_RIDING_STYLED_ITEM('overriding color',(#2009),#1229,#1673);
#2009 = PRESENTATION_STYLE_ASSIGNMENT((#2010));
#2010 = SURFACE_STYLE_USAGE(.BOTH.,#2011);
#2011 = SURFACE_SIDE_STYLE('',(#2012,#2015));
#2012 = SURFACE_STYLE_FILL_AREA(#2013);
#2013 = FILL_AREA_STYLE('',(#2014));
#2014 = FILL_AREA_STYLE_COLOUR('',#1680);
#2015 = SURFACE_STYLE_RENDERING_WITH_PROPERTIES(.NORMAL_SHADING.,#1680,(
    #2016));
#2016 = SURFACE_STYLE_TRANSPARENT(1.);
#2017 = OVER_RIDING_STYLED_ITEM('overriding color',(#2018),#1254,#1673);
#2018 = PRESENTATION_STYLE_ASSIGNMENT((#2019));
#2019 = SURFACE_STYLE_USAGE(.BOTH.,#2020);
#2020 = SURFACE_SIDE_STYLE('',(#2021,#2024));
#2021 = SURFACE_STYLE_FILL_AREA(#2022);
#2022 = FILL_AREA_STYLE('',(#2023));
#2023 = FILL_AREA_STYLE_COLOUR('',#1680);
#2024 = SURFACE_STYLE_RENDERING_WITH_PROPERTIES(.NORMAL_SHADING.,#1680,(
    #2025));
#2025 = SURFACE_STYLE_TRANSPARENT(1.);
#2026 = OVER_RIDING_STYLED_ITEM('overriding color',(#2027),#1279,#1673);
#2027 = PRESENTATION_STYLE_ASSIGNMENT((#2028));
#2028 = SURFACE_STYLE_USAGE(.BOTH.,#2029);
#2029 = SURFACE_SIDE_STYLE('',(#2030,#2033));
#2030 = SURFACE_STYLE_FILL_AREA(#2031);
#2031 = FILL_AREA_STYLE('',(#2032));
#2032 = FILL_AREA_STYLE_COLOUR('',#1680);
#2033 = SURFACE_STYLE_RENDERING_WITH_PROPERTIES(.NORMAL_SHADING.,#1680,(
    #2034));
#2034 = SURFACE_STYLE_TRANSPARENT(1.);
#2035 = OVER_RIDING_STYLED_ITEM('overriding color',(#2036),#1303,#1673);
#2036 = PRESENTATION_STYLE_ASSIGNMENT((#2037));
#2037 = SURFACE_STYLE_USAGE(.BOTH.,#2038);
#2038 = SURFACE_SIDE_STYLE('',(#2039,#2042));
#2039 = SURFACE_STYLE_FILL_AREA(#2040);
#2040 = FILL_AREA_STYLE('',(#2041));
#2041 = FILL_AREA_STYLE_COLOUR('',#1680);
#2042 = SURFACE_STYLE_RENDERING_WITH_PROPERTIES(.NORMAL_SHADING.,#1680,(
    #2043));
#2043 = SURFACE_STYLE_TRANSPARENT(1.);
#2044 = OVER_RIDING_STYLED_ITEM('overriding color',(#2045),#1327,#1673);
#2045 = PRESENTATION_STYLE_ASSIGNMENT((#2046));
#2046 = SURFACE_STYLE_USAGE(.BOTH.,#2047);
#2047 = SURFACE_SIDE_STYLE('',(#2048,#2051));
#2048 = SURFACE_STYLE_FILL_AREA(#2049);
#2049 = FILL_AREA_STYLE('',(#2050));
#2050 = FILL_AREA_STYLE_COLOUR('',#1680);
#2051 = SURFACE_STYLE_RENDERING_WITH_PROPERTIES(.NORMAL_SHADING.,#1680,(
    #2052));
#2052 = SURFACE_STYLE_TRANSPARENT(1.);
#2053 = OVER_RIDING_STYLED_ITEM('overriding color',(#2054),#1352,#1673);
#2054 = PRESENTATION_STYLE_ASSIGNMENT((#2055));
#2055 = SURFACE_STYLE_USAGE(.BOTH.,#2056);
#2056 = SURFACE_SIDE_STYLE('',(#2057,#2060));
#2057 = SURFACE_STYLE_FILL_AREA(#2058);
#2058 = FILL_AREA_STYLE('',(#2059));
#2059 = FILL_AREA_STYLE_COLOUR('',#1680);
#2060 = SURFACE_STYLE_RENDERING_WITH_PROPERTIES(.NORMAL_SHADING.,#1680,(
    #2061));
#2061 = SURFACE_STYLE_TRANSPARENT(1.);
#2062 = OVER_RIDING_STYLED_ITEM('overriding color',(#2063),#1377,#1673);
#2063 = PRESENTATION_STYLE_ASSIGNMENT((#2064));
#2064 = SURFACE_STYLE_USAGE(.BOTH.,#2065);
#2065 = SURFACE_SIDE_STYLE('',(#2066,#2069));
#2066 = SURFACE_STYLE_FILL_AREA(#2067);
#2067 = FILL_AREA_STYLE('',(#2068));
#2068 = FILL_AREA_STYLE_COLOUR('',#1680);
#2069 = SURFACE_STYLE_RENDERING_WITH_PROPERTIES(.NORMAL_SHADING.,#1680,(
    #2070));
#2070 = SURFACE_STYLE_TRANSPARENT(1.);
#2071 = OVER_RIDING_STYLED_ITEM('overriding color',(#2072),#1394,#1673);
#2072 = PRESENTATION_STYLE_ASSIGNMENT((#2073));
#2073 = SURFACE_STYLE_USAGE(.BOTH.,#2074);
#2074 = SURFACE_SIDE_STYLE('',(#2075));
#2075 = SURFACE_STYLE_FILL_AREA(#2076);
#2076 = FILL_AREA_STYLE('',(#2077));
#2077 = FILL_AREA_STYLE_COLOUR('',#1718);
#2078 = OVER_RIDING_STYLED_ITEM('overriding color',(#2079),#1412,#1673);
#2079 = PRESENTATION_STYLE_ASSIGNMENT((#2080));
#2080 = SURFACE_STYLE_USAGE(.BOTH.,#2081);
#2081 = SURFACE_SIDE_STYLE('',(#2082));
#2082 = SURFACE_STYLE_FILL_AREA(#2083);
#2083 = FILL_AREA_STYLE('',(#2084));
#2084 = FILL_AREA_STYLE_COLOUR('',#1718);
#2085 = OVER_RIDING_STYLED_ITEM('overriding color',(#2086),#1439,#1673);
#2086 = PRESENTATION_STYLE_ASSIGNMENT((#2087));
#2087 = SURFACE_STYLE_USAGE(.BOTH.,#2088);
#2088 = SURFACE_SIDE_STYLE('',(#2089,#2092));
#2089 = SURFACE_STYLE_FILL_AREA(#2090);
#2090 = FILL_AREA_STYLE('',(#2091));
#2091 = FILL_AREA_STYLE_COLOUR('',#1680);
#2092 = SURFACE_STYLE_RENDERING_WITH_PROPERTIES(.NORMAL_SHADING.,#1680,(
    #2093));
#2093 = SURFACE_STYLE_TRANSPARENT(1.);
#2094 = OVER_RIDING_STYLED_ITEM('overriding color',(#2095),#1472,#1673);
#2095 = PRESENTATION_STYLE_ASSIGNMENT((#2096));
#2096 = SURFACE_STYLE_USAGE(.BOTH.,#2097);
#2097 = SURFACE_SIDE_STYLE('',(#2098,#2101));
#2098 = SURFACE_STYLE_FILL_AREA(#2099);
#2099 = FILL_AREA_STYLE('',(#2100));
#2100 = FILL_AREA_STYLE_COLOUR('',#1680);
#2101 = SURFACE_STYLE_RENDERING_WITH_PROPERTIES(.NORMAL_SHADING.,#1680,(
    #2102));
#2102 = SURFACE_STYLE_TRANSPARENT(1.);
#2103 = OVER_RIDING_STYLED_ITEM('overriding color',(#2104),#1489,#1673);
#2104 = PRESENTATION_STYLE_ASSIGNMENT((#2105));
#2105 = SURFACE_STYLE_USAGE(.BOTH.,#2106);
#2106 = SURFACE_SIDE_STYLE('',(#2107,#2110));
#2107 = SURFACE_STYLE_FILL_AREA(#2108);
#2108 = FILL_AREA_STYLE('',(#2109));
#2109 = FILL_AREA_STYLE_COLOUR('',#1680);
#2110 = SURFACE_STYLE_RENDERING_WITH_PROPERTIES(.NORMAL_SHADING.,#1680,(
    #2111));
#2111 = SURFACE_STYLE_TRANSPARENT(1.);
#2112 = OVER_RIDING_STYLED_ITEM('overriding color',(#2113),#1506,#1673);
#2113 = PRESENTATION_STYLE_ASSIGNMENT((#2114));
#2114 = SURFACE_STYLE_USAGE(.BOTH.,#2115);
#2115 = SURFACE_SIDE_STYLE('',(#2116,#2119));
#2116 = SURFACE_STYLE_FILL_AREA(#2117);
#2117 = FILL_AREA_STYLE('',(#2118));
#2118 = FILL_AREA_STYLE_COLOUR('',#1680);
#2119 = SURFACE_STYLE_RENDERING_WITH_PROPERTIES(.NORMAL_SHADING.,#1680,(
    #2120));
#2120 = SURFACE_STYLE_TRANSPARENT(1.);
#2121 = OVER_RIDING_STYLED_ITEM('overriding color',(#2122),#1531,#1673);
#2122 = PRESENTATION_STYLE_ASSIGNMENT((#2123));
#2123 = SURFACE_STYLE_USAGE(.BOTH.,#2124);
#2124 = SURFACE_SIDE_STYLE('',(#2125,#2128));
#2125 = SURFACE_STYLE_FILL_AREA(#2126);
#2126 = FILL_AREA_STYLE('',(#2127));
#2127 = FILL_AREA_STYLE_COLOUR('',#1680);
#2128 = SURFACE_STYLE_RENDERING_WITH_PROPERTIES(.NORMAL_SHADING.,#1680,(
    #2129));
#2129 = SURFACE_STYLE_TRANSPARENT(1.);
#2130 = OVER_RIDING_STYLED_ITEM('overriding color',(#2131),#1556,#1673);
#2131 = PRESENTATION_STYLE_ASSIGNMENT((#2132));
#2132 = SURFACE_STYLE_USAGE(.BOTH.,#2133);
#2133 = SURFACE_SIDE_STYLE('',(#2134,#2137));
#2134 = SURFACE_STYLE_FILL_AREA(#2135);
#2135 = FILL_AREA_STYLE('',(#2136));
#2136 = FILL_AREA_STYLE_COLOUR('',#1680);
#2137 = SURFACE_STYLE_RENDERING_WITH_PROPERTIES(.NORMAL_SHADING.,#1680,(
    #2138));
#2138 = SURFACE_STYLE_TRANSPARENT(1.);
#2139 = OVER_RIDING_STYLED_ITEM('overriding color',(#2140),#1573,#1673);
#2140 = PRESENTATION_STYLE_ASSIGNMENT((#2141));
#2141 = SURFACE_STYLE_USAGE(.BOTH.,#2142);
#2142 = SURFACE_SIDE_STYLE('',(#2143,#2146));
#2143 = SURFACE_STYLE_FILL_AREA(#2144);
#2144 = FILL_AREA_STYLE('',(#2145));
#2145 = FILL_AREA_STYLE_COLOUR('',#1680);
#2146 = SURFACE_STYLE_RENDERING_WITH_PROPERTIES(.NORMAL_SHADING.,#1680,(
    #2147));
#2147 = SURFACE_STYLE_TRANSPARENT(1.);
#2148 = OVER_RIDING_STYLED_ITEM('overriding color',(#2149),#1590,#1673);
#2149 = PRESENTATION_STYLE_ASSIGNMENT((#2150));
#2150 = SURFACE_STYLE_USAGE(.BOTH.,#2151);
#2151 = SURFACE_SIDE_STYLE('',(#2152,#2155));
#2152 = SURFACE_STYLE_FILL_AREA(#2153);
#2153 = FILL_AREA_STYLE('',(#2154));
#2154 = FILL_AREA_STYLE_COLOUR('',#1680);
#2155 = SURFACE_STYLE_RENDERING_WITH_PROPERTIES(.NORMAL_SHADING.,#1680,(
    #2156));
#2156 = SURFACE_STYLE_TRANSPARENT(1.);
#2157 = OVER_RIDING_STYLED_ITEM('overriding color',(#2158),#1607,#1673);
#2158 = PRESENTATION_STYLE_ASSIGNMENT((#2159));
#2159 = SURFACE_STYLE_USAGE(.BOTH.,#2160);
#2160 = SURFACE_SIDE_STYLE('',(#2161));
#2161 = SURFACE_STYLE_FILL_AREA(#2162);
#2162 = FILL_AREA_STYLE('',(#2163));
#2163 = FILL_AREA_STYLE_COLOUR('',#1718);
#2164 = OVER_RIDING_STYLED_ITEM('overriding color',(#2165),#1645,#1673);
#2165 = PRESENTATION_STYLE_ASSIGNMENT((#2166));
#2166 = SURFACE_STYLE_USAGE(.BOTH.,#2167);
#2167 = SURFACE_SIDE_STYLE('',(#2168,#2171));
#2168 = SURFACE_STYLE_FILL_AREA(#2169);
#2169 = FILL_AREA_STYLE('',(#2170));
#2170 = FILL_AREA_STYLE_COLOUR('',#1680);
#2171 = SURFACE_STYLE_RENDERING_WITH_PROPERTIES(.NORMAL_SHADING.,#1680,(
    #2172));
#2172 = SURFACE_STYLE_TRANSPARENT(1.);
#2173 = OVER_RIDING_STYLED_ITEM('overriding color',(#2174),#1657,#1673);
#2174 = PRESENTATION_STYLE_ASSIGNMENT((#2175));
#2175 = SURFACE_STYLE_USAGE(.BOTH.,#2176);
#2176 = SURFACE_SIDE_STYLE('',(#2177));
#2177 = SURFACE_STYLE_FILL_AREA(#2178);
#2178 = FILL_AREA_STYLE('',(#2179));
#2179 = FILL_AREA_STYLE_COLOUR('',#1718);
ENDSEC;
END-ISO-10303-21;
